<svg width="509" height="103" viewBox="0 0 509 103" fill="none" xmlns="http://www.w3.org/2000/svg">
<path d="M32.9219 101H10.8418L10.9785 82.543H32.9219C37.4792 82.543 41.3301 81.4492 44.4746 79.2617C47.6647 77.0742 50.0801 73.8158 51.7207 69.4863C53.4069 65.1113 54.25 59.7337 54.25 53.3535V49.0469C54.25 44.2617 53.7715 40.069 52.8145 36.4688C51.903 32.8229 50.5358 29.7923 48.7129 27.377C46.89 24.916 44.6113 23.0703 41.877 21.8398C39.1882 20.6094 36.0892 19.9941 32.5801 19.9941H10.4316V1.46875H32.5801C39.3249 1.46875 45.5 2.63086 51.1055 4.95508C56.7565 7.23372 61.6328 10.515 65.7344 14.7988C69.8815 19.0371 73.0716 24.0729 75.3047 29.9062C77.5833 35.694 78.7227 42.1198 78.7227 49.1836V53.3535C78.7227 60.3717 77.5833 66.7975 75.3047 72.6309C73.0716 78.4642 69.9043 83.5 65.8027 87.7383C61.7012 91.9766 56.8477 95.2578 51.2422 97.582C45.6823 99.8607 39.5755 101 32.9219 101ZM24.582 1.46875V101H0.587891V1.46875H24.582ZM145.302 74.5449C145.302 72.9954 145.074 71.6055 144.618 70.375C144.163 69.099 143.32 67.9141 142.089 66.8203C140.859 65.7266 139.081 64.6328 136.757 63.5391C134.478 62.3997 131.471 61.2148 127.734 59.9844C123.359 58.526 119.143 56.8854 115.087 55.0625C111.031 53.194 107.408 51.0293 104.218 48.5684C101.028 46.0618 98.4986 43.1452 96.6301 39.8184C94.7616 36.446 93.8273 32.5267 93.8273 28.0605C93.8273 23.7767 94.7844 19.9258 96.6984 16.5078C98.6125 13.0443 101.279 10.1048 104.696 7.68945C108.16 5.22852 112.216 3.36003 116.864 2.08398C121.513 0.76237 126.594 0.101562 132.109 0.101562C139.4 0.101562 145.826 1.3776 151.386 3.92969C156.991 6.4362 161.366 10.0137 164.511 14.6621C167.701 19.265 169.296 24.7109 169.296 31H145.439C145.439 28.4935 144.915 26.2832 143.866 24.3691C142.864 22.4551 141.337 20.9512 139.286 19.8574C137.236 18.7637 134.661 18.2168 131.562 18.2168C128.554 18.2168 126.025 18.6725 123.974 19.584C121.923 20.4954 120.374 21.7259 119.325 23.2754C118.277 24.7793 117.753 26.4427 117.753 28.2656C117.753 29.7695 118.163 31.1367 118.984 32.3672C119.849 33.5521 121.057 34.6686 122.607 35.7168C124.202 36.765 126.116 37.7676 128.349 38.7246C130.627 39.6816 133.18 40.6159 136.005 41.5273C141.292 43.2135 145.986 45.1048 150.087 47.2012C154.234 49.252 157.721 51.599 160.546 54.2422C163.417 56.8398 165.582 59.8021 167.04 63.1289C168.544 66.4557 169.296 70.2155 169.296 74.4082C169.296 78.8743 168.43 82.8392 166.698 86.3027C164.967 89.7663 162.483 92.7057 159.247 95.1211C156.012 97.4909 152.138 99.291 147.626 100.521C143.114 101.752 138.079 102.367 132.519 102.367C127.415 102.367 122.379 101.729 117.411 100.453C112.489 99.1315 108.023 97.1263 104.013 94.4375C100.002 91.7031 96.7896 88.2168 94.3742 83.9785C92.0044 79.6947 90.8195 74.6133 90.8195 68.7344H114.882C114.882 71.651 115.269 74.112 116.044 76.1172C116.819 78.1224 117.958 79.7402 119.462 80.9707C120.966 82.1556 122.812 83.0215 124.999 83.5684C127.187 84.0697 129.693 84.3203 132.519 84.3203C135.572 84.3203 138.033 83.8874 139.902 83.0215C141.77 82.11 143.137 80.9251 144.003 79.4668C144.869 77.9629 145.302 76.3223 145.302 74.5449Z" fill="#F44174"/>
<path d="M243.532 47.4111V63.8906H197.938V47.4111H243.532ZM205.079 12.1328V101H183.656V12.1328H205.079ZM257.936 12.1328V101H236.574V12.1328H257.936ZM312.804 30.8096L291.137 101H268.126L300.78 12.1328H315.368L312.804 30.8096ZM330.748 101L309.02 30.8096L306.212 12.1328H320.983L353.82 101H330.748ZM329.894 67.8579V84.3984H284.301V67.8579H329.894ZM398.312 70.8486H376.217V54.3081H398.312C401.323 54.3081 403.764 53.7995 405.636 52.7822C407.508 51.765 408.871 50.3612 409.725 48.5708C410.621 46.7397 411.068 44.6849 411.068 42.4062C411.068 39.9648 410.621 37.7065 409.725 35.6313C408.871 33.5562 407.508 31.8879 405.636 30.6265C403.764 29.3244 401.323 28.6733 398.312 28.6733H384.274V101H362.85V12.1328H398.312C405.433 12.1328 411.557 13.4349 416.684 16.0391C421.851 18.6432 425.818 22.224 428.585 26.7812C431.352 31.2979 432.736 36.4655 432.736 42.2842C432.736 48.0215 431.352 53.0264 428.585 57.2988C425.818 61.5713 421.851 64.9079 416.684 67.3086C411.557 69.6686 405.433 70.8486 398.312 70.8486ZM507.929 84.5205V101H460.565V84.5205H507.929ZM468.195 12.1328V101H446.771V12.1328H468.195ZM501.825 47.4111V63.3413H460.565V47.4111H501.825ZM508.112 12.1328V28.6733H460.565V12.1328H508.112Z" fill="#AED9E0"/>
</svg>
