<svg width="970" height="840" viewBox="0 0 970 840" fill="none" xmlns="http://www.w3.org/2000/svg">
<g clip-path="url(#clip0_48_10)">
<g filter="url(#filter0_d_48_10)">
<path d="M184.335 688.217C350.106 774.825 618.894 774.825 784.665 688.217C950.436 601.609 950.455 461.194 784.665 374.586C618.875 287.978 350.125 287.997 184.335 374.548C18.5455 461.099 18.5645 601.628 184.335 688.217Z" fill="#F5F5F5"/>
<path d="M737.315 545.333C765.123 545.333 787.666 534.585 787.666 521.326C787.666 508.067 765.123 497.319 737.315 497.319C709.508 497.319 686.965 508.067 686.965 521.326C686.965 534.585 709.508 545.333 737.315 545.333Z" fill="#E6E6E6"/>
<path d="M742.083 103.557L749.3 106.33V90.4515C749.3 77.8592 759.347 74.8393 770.192 81.145C781.094 87.4316 789.926 102.74 789.926 115.332V117.63C791.46 117.158 793.081 117.04 794.667 117.287C796.254 117.534 797.763 118.139 799.081 119.055V119.055C803.229 121.758 806.678 125.404 809.147 129.695C811.617 133.987 813.035 138.801 813.287 143.746V144.733L823.354 150.545C826.075 152.321 828.34 154.713 829.964 157.528C831.587 160.343 832.524 163.501 832.698 166.746C832.698 172.71 828.52 175.141 823.354 172.14L742.083 125.171C739.361 123.395 737.096 121.003 735.473 118.188C733.849 115.373 732.912 112.215 732.738 108.97C732.738 102.949 736.917 100.575 742.083 103.557Z" fill="#F0F0F0"/>
<path d="M173.471 596.766L186.766 589.169C186.766 589.169 193.167 553.956 188.381 523.7C181.657 481.156 152.693 466.474 142.171 470.71C131.649 474.945 129.255 487.5 148.248 512.096C159.416 526.587 173.832 557.261 173.471 596.766Z" fill="#F44174"/>
<g opacity="0.1">
<path d="M173.471 596.766L186.766 589.169C186.766 589.169 193.167 553.956 188.381 523.7C181.657 481.156 152.693 466.474 142.171 470.71C131.649 474.945 129.255 487.5 148.248 512.096C159.416 526.587 173.832 557.261 173.471 596.766Z" fill="black"/>
</g>
<path d="M179.511 583.585C179.161 583.561 178.836 583.399 178.605 583.136C178.373 582.873 178.255 582.529 178.276 582.18C181.353 529.189 171.23 497.813 144.431 477.3C144.283 477.198 144.157 477.065 144.064 476.911C143.97 476.757 143.909 476.584 143.886 476.406C143.863 476.227 143.877 476.045 143.929 475.872C143.98 475.699 144.067 475.538 144.184 475.401C144.287 475.254 144.42 475.129 144.573 475.035C144.726 474.941 144.898 474.88 145.076 474.855C145.254 474.83 145.435 474.842 145.609 474.89C145.782 474.938 145.944 475.022 146.083 475.135C173.68 496.255 184.069 528.316 180.973 582.294C180.972 582.478 180.932 582.659 180.855 582.827C180.779 582.994 180.668 583.144 180.53 583.266C180.392 583.388 180.23 583.479 180.055 583.534C179.879 583.589 179.694 583.606 179.511 583.585Z" fill="#F3EFE0"/>
<path d="M136.511 618.095C134.403 619.292 130.072 616.652 128.42 615.55C125.578 613.632 123.276 611.016 121.734 607.953C119.991 604.425 119.406 600.437 120.063 596.557C120.396 594.52 120.872 592.508 121.487 590.537C122.057 588.637 122.608 586.643 123.159 584.706C123.846 582.823 124.137 580.818 124.013 578.818C123.52 574.829 119.968 572.037 116.739 569.625C113.187 566.966 109.484 563.434 109.503 558.628C109.765 554.903 111.254 551.37 113.738 548.581C116.036 545.675 118.752 543.092 120.823 540.034C122.464 537.891 123.322 535.25 123.254 532.551C123.029 530.906 122.473 529.323 121.62 527.898C119.674 524.915 117.966 521.785 116.511 518.534C115.353 515.191 115.524 510.937 118.145 508.601C119.314 507.722 120.648 507.088 122.067 506.736C123.486 506.383 124.962 506.32 126.407 506.55C129.104 506.891 131.695 507.811 134.004 509.247C141.601 513.482 145.969 522.542 154.079 525.79C157.287 526.79 160.554 527.589 163.861 528.183C165.52 528.49 167.096 529.14 168.49 530.092C169.883 531.044 171.062 532.276 171.952 533.71C174.915 539.654 169.407 547.005 171.496 553.253C173.395 558.837 178.751 560.965 181.79 565.979C183.037 568.2 183.537 570.764 183.215 573.291C182.955 577.554 181.912 581.733 180.138 585.617C178.198 589.496 175.97 593.222 173.471 596.766C173.338 596.861 136.853 617.905 136.511 618.095Z" fill="#F44174"/>
<path d="M158.315 606.814H158.144C157.797 606.766 157.483 606.584 157.27 606.307C157.056 606.03 156.961 605.679 157.004 605.332C160.803 574.791 146.292 533.634 124.545 513.558C124.359 513.307 124.267 512.998 124.285 512.685C124.304 512.372 124.433 512.077 124.649 511.85C124.864 511.623 125.153 511.479 125.464 511.444C125.775 511.409 126.089 511.485 126.35 511.659C149.027 532.551 163.652 573.899 159.625 605.712C159.575 606.022 159.415 606.304 159.175 606.506C158.934 606.709 158.629 606.818 158.315 606.814Z" fill="#F3EFE0"/>
<path d="M154.516 566.985C154.235 566.981 153.962 566.888 153.737 566.719C142.133 558.021 123.558 559.597 123.558 559.616C123.383 559.637 123.207 559.622 123.038 559.573C122.87 559.523 122.714 559.44 122.579 559.328C122.444 559.216 122.333 559.078 122.253 558.922C122.173 558.765 122.126 558.595 122.114 558.419C122.082 558.07 122.19 557.721 122.415 557.451C122.639 557.18 122.961 557.01 123.311 556.976C124.108 556.976 143.006 555.286 155.409 564.573C155.554 564.678 155.676 564.811 155.769 564.965C155.861 565.118 155.922 565.289 155.946 565.466C155.971 565.644 155.96 565.824 155.913 565.997C155.867 566.17 155.785 566.332 155.675 566.472C155.537 566.645 155.36 566.782 155.158 566.871C154.957 566.96 154.736 567 154.516 566.985Z" fill="#F3EFE0"/>
<path d="M152.674 559.35C152.5 559.345 152.329 559.306 152.171 559.234C152.012 559.163 151.87 559.06 151.751 558.933C151.633 558.806 151.541 558.656 151.481 558.493C151.421 558.33 151.394 558.156 151.401 557.983C151.68 553.27 152.911 548.662 155.02 544.438C157.129 540.214 160.072 536.461 163.671 533.406C163.806 533.283 163.965 533.189 164.139 533.131C164.312 533.073 164.495 533.05 164.677 533.066C164.859 533.082 165.036 533.135 165.197 533.222C165.358 533.309 165.499 533.428 165.611 533.572C165.724 533.716 165.805 533.881 165.851 534.058C165.897 534.235 165.905 534.42 165.877 534.6C165.848 534.781 165.782 534.953 165.684 535.107C165.585 535.261 165.456 535.393 165.304 535.495C162.01 538.319 159.309 541.77 157.36 545.647C155.41 549.523 154.25 553.749 153.946 558.078C153.928 558.409 153.788 558.722 153.553 558.957C153.319 559.192 153.005 559.332 152.674 559.35V559.35Z" fill="#F3EFE0"/>
<path d="M766.603 492.305C767.153 485.638 772.301 474.281 779.898 466.19C787.495 458.099 799.669 454.205 807.172 457.472C814.161 460.511 812.623 469.874 803.373 475.42C794.123 480.966 780.41 487.747 775.7 498.212L766.584 510.804L766.603 492.305Z" fill="#F44174"/>
<path opacity="0.1" d="M766.603 492.305C767.153 485.638 772.301 474.281 779.898 466.19C787.495 458.099 799.669 454.205 807.172 457.472C814.161 460.511 812.623 469.874 803.373 475.42C794.123 480.966 780.41 487.747 775.7 498.212L766.584 510.804L766.603 492.305Z" fill="black"/>
<path d="M766.603 504.403H766.489C766.25 504.37 766.033 504.244 765.887 504.052C765.741 503.859 765.677 503.617 765.71 503.378C769.034 478.687 794.085 461.593 804.038 459.694C804.159 459.661 804.286 459.653 804.41 459.671C804.535 459.689 804.654 459.733 804.761 459.8C804.867 459.866 804.959 459.954 805.03 460.058C805.101 460.161 805.15 460.278 805.174 460.402C805.197 460.525 805.195 460.652 805.168 460.775C805.14 460.897 805.087 461.013 805.012 461.114C804.938 461.215 804.843 461.3 804.734 461.363C804.625 461.426 804.505 461.465 804.38 461.479C795.092 463.246 770.667 480.206 767.514 503.625C767.482 503.843 767.372 504.042 767.204 504.185C767.037 504.328 766.823 504.406 766.603 504.403V504.403Z" fill="#F3EFE0"/>
<path d="M767.609 519.75C768.977 516.084 774.048 510.253 781.854 505.771C790.477 500.795 801.037 499.028 803.772 494.831C807.077 489.779 803.031 484.442 794.541 484.803C786.051 485.164 770.363 495.439 766.603 512.514L767.609 519.75Z" fill="#F44174"/>
<path d="M767.002 516.217H766.831C766.593 516.167 766.384 516.025 766.249 515.823C766.114 515.621 766.064 515.373 766.109 515.134C768.616 502.504 787.001 489.418 798.777 488.867C799.016 488.861 799.249 488.946 799.429 489.104C799.609 489.263 799.722 489.484 799.745 489.722C799.753 489.843 799.737 489.965 799.697 490.08C799.657 490.194 799.594 490.3 799.513 490.39C799.431 490.48 799.333 490.554 799.223 490.605C799.113 490.657 798.993 490.686 798.872 490.691C787.875 491.203 770.23 503.796 767.894 515.495C767.854 515.701 767.743 515.887 767.579 516.019C767.416 516.151 767.212 516.221 767.002 516.217V516.217Z" fill="#F3EFE0"/>
<path d="M443.836 596.557V597.336C443.872 597.997 444.063 598.64 444.393 599.214C444.723 599.788 445.183 600.277 445.735 600.641L558.63 665.806C559.216 666.112 559.867 666.272 560.529 666.272C561.19 666.272 561.842 666.112 562.428 665.806L729.167 569.549C729.723 569.183 730.184 568.692 730.514 568.114C730.844 567.537 731.033 566.89 731.067 566.226V565.466C731.03 564.802 730.84 564.156 730.51 563.579C730.18 563.002 729.721 562.51 729.167 562.142L616.292 496.977C615.703 496.68 615.053 496.525 614.393 496.525C613.733 496.525 613.083 496.68 612.494 496.977L445.735 593.253C445.183 593.617 444.723 594.105 444.393 594.679C444.063 595.253 443.872 595.896 443.836 596.557V596.557Z" fill="#E0E0E0"/>
<path d="M443.836 596.557V597.336C443.872 597.997 444.063 598.64 444.393 599.214C444.723 599.788 445.183 600.277 445.735 600.641L558.63 665.806C559.212 666.121 559.867 666.278 560.529 666.262V651.371L452.801 589.169L445.735 593.253C445.183 593.617 444.723 594.105 444.393 594.679C444.063 595.253 443.872 595.896 443.836 596.557Z" fill="#E6E6E6"/>
<path d="M445.735 595.456L558.63 660.621C559.216 660.927 559.867 661.087 560.529 661.087C561.19 661.087 561.842 660.927 562.428 660.621L729.167 564.364C730.231 563.756 730.231 562.769 729.167 562.142L616.292 496.977C615.703 496.68 615.053 496.525 614.393 496.525C613.733 496.525 613.083 496.68 612.494 496.977L445.735 593.253C445.503 593.328 445.3 593.476 445.157 593.673C445.013 593.871 444.936 594.11 444.936 594.354C444.936 594.599 445.013 594.837 445.157 595.035C445.3 595.233 445.503 595.38 445.735 595.456V595.456Z" fill="#F3EFE0"/>
<path d="M589.569 621.457L513.597 577.564C512.268 576.805 512.211 575.665 513.445 574.886C514.172 574.542 514.969 574.371 515.774 574.387C516.578 574.404 517.367 574.607 518.08 574.981L594.051 618.855C595.381 619.634 595.438 620.754 594.203 621.533C593.48 621.887 592.683 622.064 591.877 622.051C591.072 622.038 590.281 621.834 589.569 621.457Z" fill="#EBEBEB"/>
<path d="M535.705 626.585L498.213 604.952C496.883 604.192 496.826 603.053 498.061 602.274C498.779 601.909 499.573 601.718 500.378 601.718C501.183 601.718 501.977 601.909 502.695 602.274L540.187 623.926C541.517 624.686 541.574 625.825 540.339 626.604C539.621 626.971 538.826 627.161 538.02 627.157C537.214 627.154 536.42 626.958 535.705 626.585V626.585Z" fill="#E0E0E0"/>
<path d="M546.36 620.83L519.998 605.636C519.067 605.085 519.029 604.249 519.884 603.737C520.389 603.475 520.949 603.339 521.517 603.339C522.086 603.339 522.646 603.475 523.151 603.737L549.532 618.931C550.463 619.482 550.501 620.318 549.627 620.83C549.121 621.087 548.561 621.221 547.994 621.221C547.426 621.221 546.866 621.087 546.36 620.83V620.83Z" fill="#EBEBEB"/>
<path d="M603.054 613.613L527.082 569.739C525.753 568.961 525.696 567.84 526.93 567.061C527.648 566.696 528.442 566.506 529.247 566.506C530.053 566.506 530.847 566.696 531.565 567.061L607.536 610.954C608.866 611.714 608.923 612.853 607.688 613.632C606.967 613.989 606.173 614.172 605.369 614.169C604.565 614.166 603.772 613.975 603.054 613.613V613.613Z" fill="#EBEBEB"/>
<path d="M616.539 605.864L540.567 561.971C539.238 561.211 539.181 560.072 540.415 559.293C541.133 558.928 541.927 558.737 542.732 558.737C543.538 558.737 544.332 558.928 545.05 559.293L621.021 603.186C622.332 603.946 622.408 605.085 621.154 605.864C620.439 606.226 619.649 606.415 618.847 606.415C618.045 606.415 617.254 606.226 616.539 605.864V605.864Z" fill="#EBEBEB"/>
<path d="M630.024 598.096L589.892 574.848C588.562 574.089 588.505 572.949 589.74 572.17C590.467 571.826 591.264 571.655 592.068 571.671C592.873 571.688 593.662 571.891 594.374 572.265L634.468 595.494C635.779 596.272 635.855 597.393 634.62 598.172C633.901 598.516 633.111 598.688 632.313 598.675C631.516 598.662 630.732 598.464 630.024 598.096V598.096Z" fill="#EBEBEB"/>
<path d="M668.105 576.026L592.133 532.152C590.823 531.392 590.747 530.253 591.981 529.474C592.702 529.109 593.499 528.918 594.308 528.918C595.116 528.918 595.913 529.109 596.634 529.474L672.606 573.367C673.917 574.127 673.993 575.266 672.739 576.045C672.021 576.412 671.226 576.601 670.42 576.598C669.614 576.595 668.82 576.399 668.105 576.026V576.026Z" fill="#EBEBEB"/>
<path d="M681.609 568.277L605.637 524.384C604.327 523.624 604.251 522.485 605.504 521.706C606.221 521.336 607.015 521.143 607.821 521.143C608.628 521.143 609.422 521.336 610.138 521.706L686.11 565.58C687.421 566.339 687.497 567.479 686.262 568.258C685.544 568.629 684.747 568.824 683.938 568.828C683.129 568.831 682.331 568.642 681.609 568.277V568.277Z" fill="#EBEBEB"/>
<path d="M654.62 583.794L578.648 539.901C577.319 539.141 577.262 538.002 578.496 537.223C579.223 536.878 580.02 536.708 580.824 536.724C581.629 536.74 582.418 536.944 583.13 537.318L659.102 581.211C660.432 581.971 660.508 583.11 659.254 583.87C658.531 584.223 657.733 584.401 656.928 584.388C656.123 584.374 655.332 584.171 654.62 583.794V583.794Z" fill="#EBEBEB"/>
<path d="M695.094 560.509L619.122 516.616C617.793 515.856 617.736 514.717 618.97 513.957C619.688 513.592 620.482 513.401 621.287 513.401C622.093 513.401 622.887 513.592 623.605 513.957L699.576 557.85C700.906 558.609 700.963 559.749 699.728 560.528C699.007 560.884 698.213 561.068 697.409 561.065C696.605 561.061 695.812 560.871 695.094 560.509V560.509Z" fill="#EBEBEB"/>
<path d="M565.068 627.972C562.282 626.567 559.205 625.836 556.085 625.836C552.964 625.836 549.887 626.567 547.101 627.972C542.144 630.84 542.144 635.569 547.101 638.342C549.884 639.756 552.962 640.494 556.085 640.494C559.207 640.494 562.285 639.756 565.068 638.342C570.025 635.493 570.025 630.84 565.068 627.972Z" fill="#E0E0E0"/>
<path d="M445.792 384.577L374.569 425.697C371.686 427.598 369.646 430.536 368.871 433.901L351.169 536.103C350.965 537.689 351.214 539.301 351.886 540.753C352.558 542.205 353.626 543.437 354.968 544.308L400.893 570.898C402.367 571.635 403.993 572.019 405.641 572.019C407.29 572.019 408.915 571.635 410.39 570.898L508.545 514.223C509.987 513.456 511.194 512.311 512.035 510.911C512.876 509.51 513.321 507.908 513.321 506.274C513.321 504.641 512.876 503.038 512.035 501.638C511.194 500.238 509.987 499.093 508.545 498.326L473.218 477.946C471.801 477.018 470.594 475.803 469.675 474.38C468.756 472.957 468.145 471.358 467.881 469.684L460.018 392.554C459.789 390.929 459.221 389.371 458.35 387.981C457.48 386.59 456.327 385.398 454.966 384.482C453.536 383.779 451.961 383.421 450.368 383.437C448.775 383.454 447.207 383.844 445.792 384.577V384.577Z" fill="#263238"/>
<path d="M405.698 552.854V571.961C407.364 571.992 409.011 571.6 410.484 570.822L508.64 514.147C510.004 513.291 511.148 512.127 511.979 510.748C512.811 509.369 513.306 507.813 513.426 506.208C513.321 504.329 512.66 502.525 511.527 501.023H495.44L405.698 552.854Z" fill="#37474F"/>
<path d="M454.776 389.743L383.533 430.882C380.64 432.772 378.596 435.715 377.836 439.087L361.767 531.848C361.56 533.438 361.806 535.054 362.478 536.509C363.15 537.965 364.221 539.2 365.566 540.072L400.855 560.452C402.329 561.189 403.955 561.573 405.603 561.573C407.252 561.573 408.877 561.189 410.351 560.452L508.64 503.701C511.28 502.181 511.28 499.712 508.64 498.174L473.313 477.794C471.896 476.866 470.689 475.651 469.77 474.228C468.851 472.805 468.24 471.206 467.976 469.532L460.113 392.402C460.123 391.778 459.957 391.165 459.633 390.632C459.309 390.099 458.841 389.669 458.282 389.39C457.724 389.112 457.099 388.998 456.478 389.06C455.858 389.123 455.268 389.359 454.776 389.743V389.743Z" fill="#263238"/>
<path d="M508.64 498.25L473.313 477.87C471.897 476.98 470.701 475.778 469.818 474.356L362.413 536.369C363.071 537.896 364.177 539.188 365.585 540.072L400.855 560.452C402.329 561.189 403.955 561.573 405.603 561.573C407.252 561.573 408.877 561.189 410.351 560.452L508.64 503.701C511.28 502.257 511.28 499.788 508.64 498.25Z" fill="#455A64"/>
<path d="M219.453 587.84L214.876 585.2C212.928 583.926 211.308 582.212 210.147 580.196C208.985 578.18 208.315 575.918 208.19 573.595V267.808C208.316 265.485 208.988 263.225 210.153 261.211C211.319 259.198 212.943 257.488 214.895 256.222L588.581 41.6016C590.66 40.5487 592.956 40 595.286 40C597.616 40 599.912 40.5487 601.991 41.6016L605.466 43.5009C607.417 44.7722 609.041 46.4855 610.206 48.5018C611.371 50.518 612.044 52.7805 612.171 55.1056V361.082C612.045 363.408 611.373 365.671 610.208 367.687C609.043 369.704 607.418 371.417 605.466 372.687L232.843 587.84C230.767 588.888 228.474 589.434 226.148 589.434C223.822 589.434 221.529 588.888 219.453 587.84Z" fill="#455A64"/>
<path d="M235.122 275.519L210.147 261.103C208.961 263.109 208.307 265.384 208.247 267.713V573.595C208.372 575.918 209.042 578.18 210.204 580.196C211.365 582.212 212.985 583.926 214.933 585.199L219.51 587.839C221.586 588.888 223.879 589.434 226.205 589.434C228.531 589.434 230.824 588.888 232.9 587.839L235.179 586.51L235.122 275.519Z" fill="#263238"/>
<path d="M226.12 583.965V278.178C226.245 275.853 226.918 273.59 228.083 271.573C229.248 269.557 230.872 267.844 232.824 266.573L605.466 51.326C609.17 49.1988 612.171 50.9272 612.171 55.1246V361.082C612.045 363.408 611.373 365.671 610.208 367.687C609.043 369.704 607.418 371.417 605.466 372.687L232.843 587.839C229.14 589.967 226.12 588.238 226.12 583.965Z" fill="#37474F"/>
<path d="M401.121 469.95L436.429 449.552C439.088 448.032 441.215 449.115 441.215 451.983C441.103 453.59 440.61 455.149 439.778 456.529C438.946 457.909 437.798 459.072 436.429 459.922L401.121 480.32C398.481 481.84 396.335 480.757 396.335 477.889C396.455 476.283 396.95 474.728 397.782 473.349C398.613 471.97 399.757 470.806 401.121 469.95V469.95Z" fill="#263238"/>
<path d="M243.308 275.785L594.241 72.5602C596.369 71.3447 598.04 72.3323 598.04 74.7634V341.444C597.973 342.77 597.595 344.061 596.934 345.213C596.274 346.365 595.352 347.344 594.241 348.072L243.308 550.689C241.2 551.905 239.51 550.917 239.51 548.467V282.566C239.559 281.215 239.929 279.895 240.59 278.716C241.25 277.537 242.182 276.532 243.308 275.785V275.785Z" fill="#F3EFE0"/>
<path d="M266.252 355.689L262.662 353.656C261.269 352.75 260.109 351.528 259.278 350.089C258.446 348.65 257.966 347.035 257.876 345.375V294.189C257.966 292.53 258.446 290.915 259.278 289.476C260.109 288.037 261.269 286.815 262.662 285.908L396.733 208.493C398.208 207.756 399.833 207.372 401.482 207.372C403.13 207.372 404.756 207.756 406.23 208.493L409.801 210.563C411.193 211.471 412.351 212.693 413.183 214.132C414.015 215.571 414.495 217.185 414.587 218.844V270.087C414.495 271.749 414.015 273.366 413.183 274.808C412.352 276.25 411.193 277.476 409.801 278.387L275.729 355.784C274.253 356.515 272.626 356.887 270.979 356.87C269.332 356.854 267.713 356.449 266.252 355.689V355.689Z" fill="#F44174"/>
<path opacity="0.4" d="M266.252 355.689L262.662 353.656C261.269 352.75 260.109 351.528 259.278 350.089C258.446 348.65 257.966 347.035 257.876 345.375V294.189C257.966 292.53 258.446 290.915 259.278 289.476C260.109 288.037 261.269 286.815 262.662 285.908L396.733 208.493C398.208 207.756 399.833 207.372 401.482 207.372C403.13 207.372 404.756 207.756 406.23 208.493L409.801 210.563C411.193 211.471 412.351 212.693 413.183 214.132C414.015 215.571 414.495 217.185 414.587 218.844V270.087C414.495 271.749 414.015 273.366 413.183 274.808C412.352 276.25 411.193 277.476 409.801 278.387L275.729 355.784C274.253 356.515 272.626 356.887 270.979 356.87C269.332 356.854 267.713 356.449 266.252 355.689V355.689Z" fill="#F44174"/>
<path opacity="0.3" d="M266.252 355.689L262.662 353.656C261.269 352.75 260.109 351.528 259.278 350.089C258.446 348.65 257.966 347.035 257.876 345.375V294.189C257.966 292.53 258.446 290.915 259.278 289.476C260.109 288.037 261.269 286.815 262.662 285.908L396.733 208.493C398.208 207.756 399.833 207.372 401.482 207.372C403.13 207.372 404.756 207.756 406.23 208.493L409.801 210.563C411.193 211.471 412.351 212.693 413.183 214.132C414.015 215.571 414.495 217.185 414.587 218.844V270.087C414.495 271.749 414.015 273.366 413.183 274.808C412.352 276.25 411.193 277.476 409.801 278.387L275.729 355.784C274.253 356.515 272.626 356.887 270.979 356.87C269.332 356.854 267.713 356.449 266.252 355.689V355.689Z" fill="#F3EFE0"/>
<path d="M280.003 301.445L259.281 289.479C258.425 290.906 257.942 292.526 257.876 294.189V345.337C257.966 346.997 258.446 348.612 259.278 350.051C260.109 351.49 261.269 352.712 262.662 353.618L266.252 355.688C267.723 356.437 269.35 356.828 271 356.828C272.65 356.828 274.277 356.437 275.748 355.688L279.946 353.276L280.003 301.445Z" fill="#F44174"/>
<path opacity="0.2" d="M280.003 301.445L259.281 289.479C258.425 290.906 257.942 292.526 257.876 294.189V345.337C257.966 346.997 258.446 348.612 259.278 350.051C260.109 351.49 261.269 352.712 262.662 353.618L266.252 355.688C267.723 356.437 269.35 356.828 271 356.828C272.65 356.828 274.277 356.437 275.748 355.688L279.946 353.276L280.003 301.445Z" fill="black"/>
<path d="M271.019 301.786V352.934C271.019 355.973 273.165 357.227 275.805 355.688L409.877 278.292C411.269 277.381 412.428 276.154 413.259 274.713C414.091 273.271 414.571 271.654 414.663 269.992V218.806C414.663 215.767 412.517 214.533 409.877 216.052L275.805 293.448C274.408 294.364 273.246 295.596 272.414 297.045C271.583 298.493 271.105 300.118 271.019 301.786V301.786Z" fill="#F44174"/>
<path d="M328.302 273.563L374.664 246.783C376.563 245.7 378.063 246.194 378.063 247.884C377.926 248.929 377.547 249.928 376.957 250.802C376.367 251.675 375.582 252.4 374.664 252.918L328.302 279.698C326.403 280.78 324.883 280.286 324.883 278.596C325.023 277.549 325.405 276.549 325.998 275.676C326.591 274.802 327.38 274.079 328.302 273.563Z" fill="#F3EFE0"/>
<path d="M327.77 289.422L402.754 246.08C404.35 245.168 405.641 245.586 405.641 247.011C405.527 247.896 405.206 248.743 404.705 249.482C404.203 250.221 403.535 250.832 402.754 251.265L327.713 294.607C326.118 295.519 324.826 295.101 324.826 293.676C324.946 292.785 325.276 291.935 325.787 291.196C326.299 290.456 326.978 289.849 327.77 289.422V289.422Z" fill="#F3EFE0"/>
<path d="M327.77 299.792L402.754 256.45C404.35 255.539 405.641 255.956 405.641 257.381C405.527 258.267 405.206 259.113 404.705 259.852C404.203 260.591 403.535 261.202 402.754 261.635L327.713 304.958C326.118 305.889 324.826 305.471 324.826 304.028C324.949 303.14 325.28 302.294 325.791 301.558C326.303 300.822 326.981 300.217 327.77 299.792V299.792Z" fill="#F3EFE0"/>
<path d="M327.77 310.143L402.754 266.82C404.35 265.909 405.641 266.326 405.641 267.751C405.524 268.633 405.202 269.476 404.701 270.212C404.2 270.947 403.533 271.555 402.754 271.986L327.713 315.309C326.118 316.221 324.826 315.803 324.826 314.379C324.949 313.491 325.28 312.645 325.791 311.909C326.303 311.173 326.981 310.568 327.77 310.143V310.143Z" fill="#F3EFE0"/>
<path d="M283.839 299.222L312.082 282.926C314.209 281.692 315.88 282.679 315.88 285.13V317.76C315.814 319.085 315.435 320.377 314.775 321.529C314.115 322.68 313.192 323.66 312.082 324.388L283.839 340.703C281.712 341.919 280.041 340.931 280.041 338.481V305.87C280.107 304.541 280.486 303.247 281.146 302.092C281.806 300.938 282.729 299.954 283.839 299.222V299.222Z" fill="#F44174"/>
<path opacity="0.3" d="M283.839 299.222L312.082 282.926C314.209 281.692 315.88 282.679 315.88 285.13V317.76C315.814 319.085 315.435 320.377 314.775 321.529C314.115 322.68 313.192 323.66 312.082 324.388L283.839 340.703C281.712 341.919 280.041 340.931 280.041 338.481V305.87C280.107 304.541 280.486 303.247 281.146 302.092C281.806 300.938 282.729 299.954 283.839 299.222V299.222Z" fill="#F3EFE0"/>
<path d="M286.251 313.524C285.654 313.526 285.065 313.376 284.542 313.087C283.916 312.68 283.41 312.113 283.076 311.446C282.743 310.778 282.593 310.033 282.643 309.289C282.726 307.535 283.228 305.826 284.107 304.306C284.986 302.786 286.216 301.499 287.695 300.552V300.552C288.292 300.07 289.022 299.781 289.787 299.723C290.552 299.664 291.317 299.838 291.981 300.223C292.645 300.607 293.177 301.184 293.507 301.876C293.837 302.569 293.949 303.346 293.83 304.103C293.75 305.856 293.251 307.564 292.375 309.084C291.5 310.604 290.272 311.892 288.796 312.84C288.023 313.288 287.145 313.523 286.251 313.524V313.524ZM288.796 302.375C287.662 303.134 286.717 304.143 286.035 305.326C285.353 306.508 284.953 307.831 284.865 309.194C284.748 309.557 284.759 309.95 284.897 310.306C285.034 310.663 285.29 310.961 285.621 311.152C285.952 311.343 286.338 311.415 286.715 311.356C287.093 311.297 287.438 311.11 287.695 310.827C288.832 310.071 289.778 309.062 290.46 307.879C291.142 306.696 291.541 305.371 291.626 304.009C291.743 303.645 291.732 303.252 291.594 302.896C291.457 302.539 291.201 302.241 290.871 302.05C290.54 301.859 290.153 301.787 289.776 301.846C289.399 301.905 289.053 302.092 288.796 302.375V302.375Z" fill="#F3EFE0"/>
<path d="M315.918 306.174L310.524 300.476C310.258 300.208 309.932 300.007 309.572 299.892C309.212 299.776 308.83 299.749 308.457 299.812C308.085 299.876 307.733 300.028 307.432 300.256C307.13 300.483 306.888 300.78 306.726 301.122L298.977 318.215L295.178 314.797C294.922 314.569 294.619 314.399 294.292 314.297C293.964 314.196 293.619 314.165 293.279 314.208C292.94 314.254 292.615 314.373 292.327 314.557C292.038 314.74 291.793 314.984 291.607 315.271L280.003 333.296V337.398L293.678 316.506L306.156 327.807L308.15 326.648L300.648 319.849L308.682 302.09H308.929L315.918 309.516V306.174Z" fill="#F3EFE0"/>
<path d="M266.252 441.157L262.662 439.125C261.269 438.218 260.109 436.996 259.278 435.557C258.446 434.118 257.966 432.503 257.876 430.844V379.658C257.966 377.998 258.446 376.383 259.278 374.944C260.109 373.505 261.269 372.283 262.662 371.377L396.733 293.961C398.208 293.224 399.833 292.84 401.482 292.84C403.13 292.84 404.756 293.224 406.23 293.961L409.801 296.032C411.193 296.939 412.351 298.162 413.183 299.6C414.015 301.039 414.495 302.653 414.587 304.312V355.555C414.495 357.217 414.015 358.834 413.183 360.276C412.352 361.718 411.193 362.944 409.801 363.855L275.729 441.252C274.253 441.983 272.626 442.355 270.979 442.339C269.332 442.322 267.713 441.917 266.252 441.157Z" fill="#F44174"/>
<path opacity="0.4" d="M266.252 441.157L262.662 439.125C261.269 438.218 260.109 436.996 259.278 435.557C258.446 434.118 257.966 432.503 257.876 430.844V379.658C257.966 377.998 258.446 376.383 259.278 374.944C260.109 373.505 261.269 372.283 262.662 371.377L396.733 293.961C398.208 293.224 399.833 292.84 401.482 292.84C403.13 292.84 404.756 293.224 406.23 293.961L409.801 296.032C411.193 296.939 412.351 298.162 413.183 299.6C414.015 301.039 414.495 302.653 414.587 304.312V355.555C414.495 357.217 414.015 358.834 413.183 360.276C412.352 361.718 411.193 362.944 409.801 363.855L275.729 441.252C274.253 441.983 272.626 442.355 270.979 442.339C269.332 442.322 267.713 441.917 266.252 441.157Z" fill="#F44174"/>
<path opacity="0.3" d="M266.252 441.157L262.662 439.125C261.269 438.218 260.109 436.996 259.278 435.557C258.446 434.118 257.966 432.503 257.876 430.844V379.658C257.966 377.998 258.446 376.383 259.278 374.944C260.109 373.505 261.269 372.283 262.662 371.377L396.733 293.961C398.208 293.224 399.833 292.84 401.482 292.84C403.13 292.84 404.756 293.224 406.23 293.961L409.801 296.032C411.193 296.939 412.351 298.162 413.183 299.6C414.015 301.039 414.495 302.653 414.587 304.312V355.555C414.495 357.217 414.015 358.834 413.183 360.276C412.352 361.718 411.193 362.944 409.801 363.855L275.729 441.252C274.253 441.983 272.626 442.355 270.979 442.339C269.332 442.322 267.713 441.917 266.252 441.157Z" fill="#F3EFE0"/>
<path d="M280.003 386.913L259.281 374.947C258.425 376.374 257.942 377.994 257.876 379.658V430.806C257.966 432.465 258.446 434.08 259.278 435.519C260.109 436.958 261.269 438.18 262.662 439.087L266.252 441.157C267.723 441.906 269.35 442.296 271 442.296C272.65 442.296 274.277 441.906 275.748 441.157L279.946 438.745L280.003 386.913Z" fill="#F44174"/>
<path opacity="0.2" d="M280.003 386.913L259.281 374.947C258.425 376.374 257.942 377.994 257.876 379.658V430.806C257.966 432.465 258.446 434.08 259.278 435.519C260.109 436.958 261.269 438.18 262.662 439.087L266.252 441.157C267.723 441.906 269.35 442.296 271 442.296C272.65 442.296 274.277 441.906 275.748 441.157L279.946 438.745L280.003 386.913Z" fill="black"/>
<path d="M271.019 387.255V438.403C271.019 441.442 273.165 442.695 275.805 441.157L409.877 363.761C411.269 362.849 412.428 361.623 413.259 360.181C414.091 358.739 414.571 357.122 414.663 355.461V304.275C414.663 301.236 412.517 300.001 409.877 301.521L275.805 378.917C274.408 379.832 273.246 381.064 272.414 382.513C271.583 383.962 271.105 385.587 271.019 387.255V387.255Z" fill="#F44174"/>
<path d="M328.302 359.031L374.664 332.251C376.563 331.169 378.063 331.662 378.063 333.353C377.926 334.398 377.547 335.397 376.957 336.27C376.367 337.144 375.582 337.868 374.664 338.386L328.302 365.166C326.403 366.249 324.883 365.755 324.883 364.064C325.023 363.018 325.405 362.018 325.998 361.144C326.591 360.27 327.38 359.547 328.302 359.031V359.031Z" fill="#F3EFE0"/>
<path d="M327.77 374.89L402.754 331.548C404.35 330.637 405.641 331.054 405.641 332.479C405.527 333.365 405.206 334.211 404.705 334.95C404.203 335.689 403.535 336.3 402.754 336.733L327.713 380.075C326.118 380.987 324.826 380.569 324.826 379.145C324.946 378.254 325.276 377.404 325.787 376.664C326.299 375.925 326.978 375.317 327.77 374.89V374.89Z" fill="#F3EFE0"/>
<path d="M327.77 385.261L402.754 341.919C404.35 341.007 405.641 341.425 405.641 342.849C405.527 343.735 405.206 344.582 404.705 345.321C404.203 346.06 403.535 346.67 402.754 347.104L327.713 390.427C326.118 391.357 324.826 390.939 324.826 389.496C324.949 388.608 325.28 387.762 325.791 387.026C326.303 386.29 326.981 385.685 327.77 385.261V385.261Z" fill="#F3EFE0"/>
<path d="M327.77 395.612L402.754 352.289C404.35 351.377 405.641 351.795 405.641 353.219C405.524 354.102 405.202 354.944 404.701 355.68C404.2 356.416 403.533 357.023 402.754 357.455L327.713 400.778C326.118 401.689 324.826 401.272 324.826 399.847C324.949 398.959 325.28 398.113 325.791 397.377C326.303 396.641 326.981 396.036 327.77 395.612V395.612Z" fill="#F3EFE0"/>
<path d="M283.839 384.691L312.082 368.395C314.209 367.16 315.88 368.148 315.88 370.598V403.228C315.814 404.554 315.435 405.845 314.775 406.997C314.115 408.149 313.192 409.129 312.082 409.856L283.839 426.171C281.712 427.387 280.041 426.399 280.041 423.949V391.338C280.107 390.01 280.486 388.716 281.146 387.561C281.806 386.406 282.729 385.423 283.839 384.691V384.691Z" fill="#F44174"/>
<path opacity="0.3" d="M283.839 384.691L312.082 368.395C314.209 367.16 315.88 368.148 315.88 370.598V403.228C315.814 404.554 315.435 405.845 314.775 406.997C314.115 408.149 313.192 409.129 312.082 409.856L283.839 426.171C281.712 427.387 280.041 426.399 280.041 423.949V391.338C280.107 390.01 280.486 388.716 281.146 387.561C281.806 386.406 282.729 385.423 283.839 384.691V384.691Z" fill="#F3EFE0"/>
<path d="M286.251 398.992C285.654 398.995 285.065 398.844 284.542 398.556C283.916 398.149 283.41 397.582 283.076 396.914C282.743 396.246 282.593 395.502 282.643 394.757C282.726 393.003 283.228 391.295 284.107 389.775C284.986 388.255 286.216 386.967 287.695 386.02V386.02C288.292 385.539 289.022 385.25 289.787 385.191C290.552 385.132 291.317 385.307 291.981 385.691C292.645 386.076 293.177 386.652 293.507 387.345C293.837 388.038 293.949 388.814 293.83 389.572C293.75 391.324 293.251 393.032 292.375 394.552C291.5 396.072 290.272 397.36 288.796 398.309C288.023 398.756 287.145 398.992 286.251 398.992ZM288.796 387.844C287.662 388.602 286.717 389.611 286.035 390.794C285.353 391.976 284.953 393.3 284.865 394.662C284.748 395.026 284.759 395.418 284.897 395.775C285.034 396.131 285.29 396.43 285.621 396.621C285.952 396.812 286.338 396.884 286.715 396.824C287.093 396.765 287.438 396.579 287.695 396.295C288.832 395.539 289.778 394.53 290.46 393.347C291.142 392.164 291.541 390.84 291.626 389.477C291.743 389.113 291.732 388.72 291.594 388.364C291.457 388.008 291.201 387.709 290.871 387.518C290.54 387.327 290.153 387.255 289.776 387.314C289.399 387.374 289.053 387.56 288.796 387.844V387.844Z" fill="#F3EFE0"/>
<path d="M315.918 391.642L310.524 385.944C310.258 385.676 309.932 385.476 309.572 385.36C309.212 385.245 308.83 385.218 308.457 385.281C308.085 385.344 307.733 385.496 307.432 385.724C307.13 385.952 306.888 386.249 306.726 386.59L298.977 403.684L295.178 400.265C294.922 400.038 294.619 399.867 294.292 399.766C293.964 399.664 293.619 399.634 293.279 399.676C292.94 399.723 292.615 399.842 292.327 400.025C292.038 400.209 291.793 400.453 291.607 400.74L280.003 418.764V422.886L293.678 401.898L306.156 413.199L308.15 412.041L300.648 405.241L308.682 387.483H308.929L315.918 394.909V391.642Z" fill="#F3EFE0"/>
<path d="M266.252 524.726L262.662 522.694C261.269 521.787 260.109 520.565 259.278 519.126C258.446 517.687 257.966 516.072 257.876 514.413V463.227C257.966 461.567 258.446 459.952 259.278 458.513C260.109 457.074 261.269 455.852 262.662 454.946L396.733 377.53C398.208 376.793 399.833 376.409 401.482 376.409C403.13 376.409 404.756 376.793 406.23 377.53L409.801 379.601C411.193 380.508 412.351 381.731 413.183 383.169C414.015 384.608 414.495 386.222 414.587 387.882V439.125C414.495 440.786 414.015 442.403 413.183 443.845C412.352 445.287 411.193 446.513 409.801 447.424L275.729 524.821C274.253 525.552 272.626 525.924 270.979 525.908C269.332 525.891 267.713 525.486 266.252 524.726V524.726Z" fill="#F44174"/>
<path opacity="0.4" d="M266.252 524.726L262.662 522.694C261.269 521.787 260.109 520.565 259.278 519.126C258.446 517.687 257.966 516.072 257.876 514.413V463.227C257.966 461.567 258.446 459.952 259.278 458.513C260.109 457.074 261.269 455.852 262.662 454.946L396.733 377.53C398.208 376.793 399.833 376.409 401.482 376.409C403.13 376.409 404.756 376.793 406.23 377.53L409.801 379.601C411.193 380.508 412.351 381.731 413.183 383.169C414.015 384.608 414.495 386.222 414.587 387.882V439.125C414.495 440.786 414.015 442.403 413.183 443.845C412.352 445.287 411.193 446.513 409.801 447.424L275.729 524.821C274.253 525.552 272.626 525.924 270.979 525.908C269.332 525.891 267.713 525.486 266.252 524.726V524.726Z" fill="#F44174"/>
<path opacity="0.3" d="M266.252 524.726L262.662 522.694C261.269 521.787 260.109 520.565 259.278 519.126C258.446 517.687 257.966 516.072 257.876 514.413V463.227C257.966 461.567 258.446 459.952 259.278 458.513C260.109 457.074 261.269 455.852 262.662 454.946L396.733 377.53C398.208 376.793 399.833 376.409 401.482 376.409C403.13 376.409 404.756 376.793 406.23 377.53L409.801 379.601C411.193 380.508 412.351 381.731 413.183 383.169C414.015 384.608 414.495 386.222 414.587 387.882V439.125C414.495 440.786 414.015 442.403 413.183 443.845C412.352 445.287 411.193 446.513 409.801 447.424L275.729 524.821C274.253 525.552 272.626 525.924 270.979 525.908C269.332 525.891 267.713 525.486 266.252 524.726V524.726Z" fill="#F3EFE0"/>
<path d="M280.003 470.482L259.281 458.516C258.425 459.944 257.942 461.563 257.876 463.227V514.375C257.966 516.034 258.446 517.649 259.278 519.088C260.109 520.527 261.269 521.749 262.662 522.656L266.252 524.726C267.723 525.475 269.35 525.865 271 525.865C272.65 525.865 274.277 525.475 275.748 524.726L279.946 522.314L280.003 470.482Z" fill="#F44174"/>
<path opacity="0.2" d="M280.003 470.482L259.281 458.516C258.425 459.944 257.942 461.563 257.876 463.227V514.375C257.966 516.034 258.446 517.649 259.278 519.088C260.109 520.527 261.269 521.749 262.662 522.656L266.252 524.726C267.723 525.475 269.35 525.865 271 525.865C272.65 525.865 274.277 525.475 275.748 524.726L279.946 522.314L280.003 470.482Z" fill="black"/>
<path d="M271.019 470.824V521.972C271.019 525.011 273.165 526.264 275.805 524.726L409.877 447.33C411.269 446.418 412.428 445.192 413.259 443.75C414.091 442.308 414.571 440.691 414.663 439.03V387.844C414.663 384.805 412.517 383.57 409.877 385.09L275.805 462.486C274.408 463.401 273.246 464.633 272.414 466.082C271.583 467.531 271.105 469.156 271.019 470.824V470.824Z" fill="#F44174"/>
<path d="M328.302 442.6L374.664 415.82C376.563 414.738 378.063 415.231 378.063 416.922C377.926 417.967 377.547 418.966 376.957 419.839C376.367 420.713 375.582 421.437 374.664 421.955L328.302 448.735C326.403 449.818 324.883 449.324 324.883 447.633C325.023 446.587 325.405 445.587 325.998 444.713C326.591 443.84 327.38 443.116 328.302 442.6V442.6Z" fill="#F3EFE0"/>
<path d="M327.77 458.459L402.754 415.117C404.35 414.206 405.641 414.624 405.641 416.048C405.527 416.934 405.206 417.78 404.705 418.519C404.203 419.258 403.535 419.869 402.754 420.302L327.713 463.644C326.118 464.556 324.826 464.138 324.826 462.714C324.946 461.823 325.276 460.973 325.787 460.233C326.299 459.494 326.978 458.886 327.77 458.459Z" fill="#F3EFE0"/>
<path d="M327.77 468.83L402.754 425.488C404.35 424.576 405.641 424.994 405.641 426.418C405.527 427.304 405.206 428.151 404.705 428.89C404.203 429.629 403.535 430.239 402.754 430.673L327.713 473.996C326.118 474.926 324.826 474.508 324.826 473.065C324.949 472.177 325.28 471.331 325.791 470.595C326.303 469.859 326.981 469.254 327.77 468.83V468.83Z" fill="#F3EFE0"/>
<path d="M327.77 479.181L402.754 435.858C404.35 434.946 405.641 435.364 405.641 436.788C405.524 437.671 405.202 438.514 404.701 439.249C404.2 439.985 403.533 440.592 402.754 441.024L327.713 484.347C326.118 485.258 324.826 484.841 324.826 483.416C324.949 482.528 325.28 481.682 325.791 480.946C326.303 480.21 326.981 479.605 327.77 479.181V479.181Z" fill="#F3EFE0"/>
<path d="M283.839 468.26L312.082 451.964C314.209 450.729 315.88 451.717 315.88 454.167V486.797C315.814 488.123 315.435 489.414 314.775 490.566C314.115 491.718 313.192 492.698 312.082 493.425L283.839 509.74C281.712 510.956 280.041 509.968 280.041 507.518V474.907C280.107 473.579 280.486 472.285 281.146 471.13C281.806 469.975 282.729 468.992 283.839 468.26V468.26Z" fill="#F44174"/>
<path opacity="0.3" d="M283.839 468.26L312.082 451.964C314.209 450.729 315.88 451.717 315.88 454.167V486.797C315.814 488.123 315.435 489.414 314.775 490.566C314.115 491.718 313.192 492.698 312.082 493.425L283.839 509.74C281.712 510.956 280.041 509.968 280.041 507.518V474.907C280.107 473.579 280.486 472.285 281.146 471.13C281.806 469.975 282.729 468.992 283.839 468.26V468.26Z" fill="#F3EFE0"/>
<path d="M286.251 482.561C285.654 482.564 285.065 482.413 284.542 482.125C283.916 481.718 283.41 481.151 283.076 480.483C282.743 479.816 282.593 479.071 282.643 478.326C282.726 476.572 283.228 474.864 284.107 473.344C284.986 471.824 286.216 470.537 287.695 469.589V469.589C288.292 469.108 289.022 468.819 289.787 468.76C290.552 468.701 291.317 468.876 291.981 469.26C292.645 469.645 293.177 470.221 293.507 470.914C293.837 471.607 293.949 472.383 293.83 473.141C293.75 474.893 293.251 476.601 292.375 478.121C291.5 479.641 290.272 480.93 288.796 481.878C288.023 482.325 287.145 482.561 286.251 482.561ZM288.796 471.413C287.662 472.171 286.717 473.181 286.035 474.363C285.353 475.545 284.953 476.869 284.865 478.231C284.748 478.595 284.759 478.988 284.897 479.344C285.034 479.7 285.29 479.999 285.621 480.19C285.952 480.381 286.338 480.453 286.715 480.394C287.093 480.334 287.438 480.148 287.695 479.865C288.832 479.108 289.778 478.099 290.46 476.916C291.142 475.733 291.541 474.409 291.626 473.046C291.743 472.682 291.732 472.29 291.594 471.933C291.457 471.577 291.201 471.278 290.871 471.087C290.54 470.896 290.153 470.824 289.776 470.884C289.399 470.943 289.053 471.13 288.796 471.413V471.413Z" fill="#F3EFE0"/>
<path d="M315.918 475.211L310.524 469.513C310.258 469.245 309.932 469.045 309.572 468.929C309.212 468.814 308.83 468.787 308.457 468.85C308.085 468.913 307.733 469.065 307.432 469.293C307.13 469.521 306.888 469.818 306.726 470.159L298.977 487.253L295.178 483.834C294.922 483.607 294.619 483.436 294.292 483.335C293.964 483.233 293.619 483.203 293.279 483.245C292.94 483.292 292.615 483.411 292.327 483.594C292.038 483.778 291.793 484.022 291.607 484.309L280.003 502.333V506.455L293.678 485.467L306.156 496.768L308.15 495.61L300.648 488.81L308.682 471.052H308.929L315.918 478.478V475.211Z" fill="#F3EFE0"/>
<path d="M436.809 423.056L433.238 420.986C431.845 420.08 430.685 418.858 429.854 417.419C429.022 415.98 428.542 414.365 428.452 412.705V195.711C428.543 194.051 429.024 192.437 429.856 190.998C430.687 189.56 431.846 188.337 433.238 187.43L639.122 68.5527C640.593 67.8068 642.22 67.4181 643.87 67.4181C645.52 67.4181 647.147 67.8068 648.618 68.5527L652.265 70.6609C653.657 71.5724 654.816 72.7985 655.648 74.2403C656.479 75.682 656.96 77.299 657.051 78.9608V295.899C656.96 297.558 656.479 299.172 655.647 300.611C654.816 302.049 653.657 303.272 652.265 304.179L446.438 423.056C444.949 423.824 443.299 424.225 441.623 424.225C439.948 424.225 438.297 423.824 436.809 423.056V423.056Z" fill="#F44174"/>
<path d="M450.579 202.966L429.857 191C428.992 192.424 428.508 194.046 428.452 195.711V412.705C428.542 414.365 429.022 415.98 429.854 417.419C430.685 418.858 431.845 420.08 433.238 420.986L436.809 423.057C438.28 423.802 439.907 424.191 441.557 424.191C443.207 424.191 444.833 423.802 446.305 423.057L450.503 420.644L450.579 202.966Z" fill="#E6E6E6"/>
<path d="M450.579 202.966L429.857 191C428.992 192.424 428.508 194.046 428.452 195.711V205.739L441.595 213.336L450.579 202.966Z" fill="#F44174"/>
<g opacity="0.2">
<path d="M450.579 202.966L429.857 191C428.992 192.424 428.508 194.046 428.452 195.711V205.739L441.595 213.336L450.579 202.966Z" fill="black"/>
</g>
<path d="M441.595 203.308V420.302C441.595 423.341 443.741 424.595 446.381 423.056L652.265 304.274C653.657 303.367 654.816 302.144 655.647 300.706C656.479 299.267 656.96 297.653 657.051 295.993V78.9038C657.051 75.846 654.905 74.6114 652.265 76.1309L446.438 195.027C445.034 195.927 443.864 197.146 443.022 198.586C442.18 200.025 441.691 201.643 441.595 203.308V203.308Z" fill="#F5F5F5"/>
<path d="M464.045 211.494C471.471 207.201 477.511 210.677 477.511 219.262C477.258 223.934 475.906 228.481 473.567 232.534C471.227 236.586 467.965 240.03 464.045 242.585C456.599 246.897 450.579 243.402 450.579 234.817C450.83 230.144 452.181 225.597 454.52 221.544C456.86 217.491 460.123 214.048 464.045 211.494V211.494Z" fill="#F44174"/>
<path d="M491.28 200.649L535.572 175.122C538.212 173.603 540.358 174.685 540.358 177.534C540.24 179.143 539.745 180.702 538.914 182.084C538.082 183.466 536.938 184.634 535.572 185.492L491.28 211.019C488.621 212.538 486.494 211.456 486.494 208.607C486.61 206.997 487.103 205.438 487.935 204.055C488.767 202.672 489.913 201.505 491.28 200.649V200.649Z" fill="#F44174"/>
<path d="M488.887 219.053L519.998 201.086C521.327 200.326 522.391 200.858 522.391 202.301C522.333 203.105 522.086 203.883 521.67 204.573C521.255 205.263 520.681 205.845 519.998 206.271L488.887 224.238C487.558 224.998 486.494 224.466 486.494 223.023C486.552 222.219 486.799 221.441 487.215 220.751C487.631 220.061 488.204 219.479 488.887 219.053Z" fill="#F44174"/>
<path d="M455.365 257.97L643.3 149.463C645.94 147.943 648.086 149.178 648.086 152.236V286.307C647.997 287.967 647.516 289.582 646.685 291.021C645.853 292.459 644.693 293.682 643.3 294.588L455.27 403.152C452.63 404.671 450.579 403.437 450.579 400.398V266.289C450.664 264.623 451.142 263.001 451.974 261.555C452.806 260.109 453.968 258.881 455.365 257.97Z" fill="#F44174"/>
<path d="M500.34 346.572C499.707 346.579 499.083 346.415 498.536 346.097C497.886 345.65 497.367 345.038 497.033 344.323C496.699 343.609 496.562 342.818 496.637 342.033V270.087C496.727 268.232 497.258 266.425 498.186 264.817C499.114 263.208 500.413 261.844 501.974 260.838L595.609 206.784C596.256 206.327 597.015 206.055 597.805 205.998C598.595 205.942 599.386 206.101 600.091 206.461C600.74 206.904 601.258 207.514 601.592 208.225C601.926 208.936 602.063 209.724 601.991 210.506V282.395C601.905 284.248 601.376 286.054 600.447 287.66C599.518 289.267 598.217 290.626 596.654 291.625L503.018 345.679C502.223 346.213 501.297 346.522 500.34 346.572ZM598.23 208.265C597.668 208.294 597.125 208.471 596.654 208.778L503.018 262.832C501.797 263.645 500.78 264.73 500.049 266.002C499.317 267.274 498.89 268.698 498.802 270.163V342.033C498.694 342.43 498.718 342.851 498.87 343.233C499.022 343.615 499.294 343.938 499.646 344.152C499.997 344.366 500.408 344.461 500.818 344.421C501.227 344.381 501.613 344.21 501.917 343.932L595.552 289.859C596.774 289.05 597.793 287.968 598.528 286.7C599.263 285.431 599.694 284.01 599.787 282.547V210.582C599.834 210.182 599.78 209.776 599.631 209.401C599.482 209.026 599.242 208.695 598.933 208.436C598.717 208.32 598.475 208.261 598.23 208.265V208.265Z" fill="#F3EFE0"/>
<path d="M513.217 286.212C512.205 286.22 511.208 285.958 510.33 285.452C509.242 284.714 508.372 283.697 507.811 282.508C507.25 281.318 507.018 280 507.14 278.691C507.289 275.381 508.23 272.156 509.882 269.284C511.534 266.413 513.85 263.979 516.636 262.186V262.186C517.666 261.335 518.931 260.819 520.262 260.708C521.593 260.596 522.927 260.894 524.084 261.561C525.241 262.229 526.166 263.234 526.736 264.442C527.306 265.65 527.493 267.003 527.272 268.321C527.11 271.627 526.165 274.848 524.514 277.718C522.863 280.588 520.553 283.024 517.776 284.826C516.402 285.675 514.831 286.153 513.217 286.212V286.212ZM517.776 264.085C515.323 265.687 513.281 267.844 511.816 270.382C510.351 272.919 509.504 275.765 509.343 278.691C509.119 279.617 509.202 280.59 509.578 281.465C509.954 282.34 510.604 283.07 511.429 283.545C512.255 284.02 513.212 284.214 514.158 284.099C515.103 283.984 515.986 283.566 516.674 282.907C519.121 281.305 521.157 279.15 522.619 276.616C524.08 274.083 524.926 271.241 525.088 268.321C525.311 267.397 525.23 266.426 524.856 265.552C524.482 264.678 523.836 263.949 523.014 263.472C522.191 262.996 521.237 262.798 520.293 262.909C519.349 263.019 518.466 263.432 517.776 264.085Z" fill="#F3EFE0"/>
<path d="M498.612 335.081L496.712 333.866L529.247 284.75C529.716 284.05 530.44 283.563 531.264 283.393C532.088 283.222 532.946 283.382 533.654 283.838L567.841 306.459L566.607 308.358L532.419 285.756C532.313 285.685 532.194 285.635 532.069 285.61C531.944 285.584 531.815 285.584 531.69 285.609C531.564 285.633 531.445 285.683 531.339 285.754C531.233 285.825 531.142 285.916 531.071 286.022L498.612 335.081Z" fill="#F3EFE0"/>
<path d="M549.456 295.462L547.557 294.436L573.045 246.631C573.29 246.172 573.642 245.78 574.073 245.489C574.503 245.198 574.998 245.016 575.514 244.959C576.032 244.913 576.554 244.991 577.036 245.186C577.518 245.381 577.947 245.687 578.287 246.08L601.763 274.247L600.072 275.652L576.54 247.504C576.441 247.383 576.314 247.287 576.169 247.226C576.025 247.166 575.867 247.142 575.711 247.157C575.555 247.172 575.405 247.225 575.274 247.313C575.144 247.4 575.037 247.518 574.964 247.656L549.456 295.462Z" fill="#F3EFE0"/>
<path d="M657.051 78.9038C657.051 75.846 654.905 74.6114 652.265 76.1309L446.438 195.027C445.045 195.933 443.885 197.155 443.054 198.594C442.222 200.033 441.742 201.648 441.652 203.308V213.317L657.051 88.9321V78.9038Z" fill="#F44174"/>
<path opacity="0.1" d="M657.051 78.9038C657.051 75.846 654.905 74.6114 652.265 76.1309L446.438 195.027C445.045 195.933 443.885 197.155 443.054 198.594C442.222 200.033 441.742 201.648 441.652 203.308V213.317L657.051 88.9321V78.9038Z" fill="black"/>
<path d="M720.83 312.612C715.265 319.26 705.122 331.947 699.937 338.481C697.177 341.898 695.687 346.167 695.721 350.56C695.721 353.827 696.652 356.543 699.823 355.157C702.543 353.818 704.966 351.944 706.946 349.649C709.966 346.667 720.659 333.808 720.659 333.808C720.659 333.808 728.864 312.232 733.384 310.865C735.832 310.06 738.408 309.719 740.981 309.858C735.549 308.073 727.876 304.274 720.83 312.612Z" fill="#F28F8F"/>
<path d="M743.697 305.528C738.113 301.331 728.693 302.432 723.47 308.738C719.671 313.353 710.554 324.635 710.554 324.635C711.665 327.107 713.282 329.32 715.3 331.129C717.319 332.938 719.694 334.304 722.273 335.138L743.697 305.528Z" fill="#F44174"/>
<path opacity="0.1" d="M743.697 305.528C738.113 301.331 728.693 302.432 723.47 308.738C719.671 313.353 710.554 324.635 710.554 324.635C711.665 327.107 713.282 329.32 715.3 331.129C717.319 332.938 719.694 334.304 722.273 335.138L743.697 305.528Z" fill="black"/>
<path d="M657.982 477.414L624.763 515.4C624.552 515.643 624.271 515.813 623.958 515.888C623.646 515.962 623.318 515.937 623.02 515.815C622.723 515.694 622.471 515.482 622.299 515.21C622.128 514.938 622.047 514.619 622.066 514.299L625.39 463.682L657.982 477.414Z" fill="#455A64"/>
<path d="M622.066 514.242C622.047 514.562 622.128 514.881 622.299 515.153C622.471 515.425 622.723 515.637 623.02 515.759C623.318 515.88 623.646 515.905 623.958 515.831C624.271 515.756 624.552 515.586 624.763 515.343L631.24 507.955C629.69 508.113 628.126 507.842 626.72 507.172C625.313 506.502 624.117 505.459 623.263 504.156L622.788 503.435L622.066 514.242Z" fill="#263238"/>
<path d="M706.642 267.067L704.856 271.379L702.691 276.564L625.39 463.625C627.422 468.939 631.402 473.278 636.52 475.762C644.117 479.845 653.272 480.567 657.963 477.414L734.732 291.739L738.854 281.787C735.834 288.073 703.736 273.411 706.642 267.067Z" fill="#37474F"/>
<path d="M699.842 283.382L695.873 293.012C694.638 295.785 699.842 300.02 706.471 303.477C715.227 308.092 726.47 311.283 728.123 307.636L731.029 300.533L732.073 297.988C730.421 301.634 719.177 298.444 710.402 293.828C704.059 290.504 699.007 286.44 699.747 283.686C699.749 283.578 699.782 283.472 699.842 283.382V283.382Z" fill="#455A64"/>
<path d="M698.874 285.87C695.968 292.271 728.199 306.876 731.162 300.476L735.169 290.846C732.263 297.247 700.032 282.641 702.881 276.241L698.874 285.87Z" fill="#37474F"/>
<path d="M706.642 267.067L702.691 276.564C699.804 282.831 730.782 297.228 734.694 291.758C734.779 291.654 734.849 291.539 734.903 291.416L738.816 281.806C735.834 288.073 703.736 273.411 706.642 267.067Z" fill="#455A64"/>
<path d="M723.432 226.688L706.642 267.067C705.388 269.783 710.44 274.019 717.069 277.475C725.825 282.11 737.088 285.395 738.816 281.787L754.922 242.946C759.423 234.209 743.906 223.193 732.738 222.548C728.636 222.244 725.103 223.421 723.432 226.688Z" fill="#263238"/>
<path d="M735.815 286.098C743.283 286.098 749.338 280.044 749.338 272.575C749.338 265.107 743.283 259.052 735.815 259.052C728.346 259.052 722.292 265.107 722.292 272.575C722.292 280.044 728.346 286.098 735.815 286.098Z" fill="#263238"/>
<path d="M768.179 501.345H758.664V517.641H768.179V501.345Z" fill="#FFA8A7"/>
<path d="M735.169 500.491L725.654 500.814L725.179 483.549L734.694 483.226L735.169 500.491Z" fill="#FFA8A7"/>
<path d="M767.571 372.117C767.571 381.215 768.749 436.314 768.749 436.314C768.958 438.935 771.427 443.759 770.895 453.806C770.173 467.462 768.996 502.96 768.996 502.96C768.996 502.96 764.513 507.385 758.208 502.96C758.208 502.96 749.585 453.863 747.895 440.283C746.394 428.489 743.868 396.409 743.868 396.409L735.131 434.205C735.131 434.205 736.689 443.075 737.031 449.4C737.372 455.724 735.416 488.449 735.416 488.449C733.874 489.419 732.105 489.966 730.284 490.036C728.464 490.106 726.658 489.697 725.046 488.848C725.046 488.848 717.449 439.466 716.423 433.769C715.398 428.071 723.109 372.231 723.109 372.231L767.571 372.117Z" fill="#37474F"/>
<path d="M758.417 306.326C760.448 306.679 762.328 307.628 763.819 309.051C765.31 310.475 766.345 312.309 766.793 314.322C767.307 316.699 767.568 319.125 767.571 321.558V372.117C760.886 379.373 737.6 382.753 723.014 372.117C723.014 372.117 723.318 327.446 724.4 320.115C726.3 307.37 732.396 302.812 738.531 303.306L753.232 305.395L758.417 306.326Z" fill="#F44174"/>
<path d="M759.195 282.186C758.379 286.231 757.352 290.232 756.118 294.17C755.533 295.213 754.566 295.989 753.421 296.335L753.573 289.099L759.195 282.186Z" fill="#263238"/>
<path d="M756.441 267.447C757.206 267.353 757.983 267.436 758.71 267.69C759.438 267.943 760.098 268.361 760.639 268.909C762.443 270.809 761.437 276.507 759.195 282.205L755.055 282.679L756.441 267.447Z" fill="#263238"/>
<path d="M753.82 282.66C754.656 283.154 755.834 281.578 756.859 280.495C757.259 280.034 757.77 279.684 758.343 279.477C758.917 279.269 759.534 279.213 760.136 279.312C760.738 279.411 761.304 279.662 761.781 280.042C762.258 280.422 762.63 280.918 762.861 281.483C764.551 285.053 761.399 289.764 758.778 290.58C754.257 292.005 753.573 289.099 753.573 289.099L753.232 305.414C752.231 307.599 750.705 309.503 748.789 310.955C746.874 312.406 744.628 313.361 742.254 313.733C734.239 314.815 735.891 308.206 738.455 304.977V300.02C736.445 300.335 734.408 300.437 732.377 300.324C729.034 299.811 726.945 297.19 725.939 293.6C724.324 287.902 723.716 283.154 725.084 271.777C726.584 259.318 741.076 259.185 748.901 264.18C756.726 269.175 753.82 282.66 753.82 282.66Z" fill="#FFA8A7"/>
<path d="M753.82 284.047C754.238 284.047 755.815 281.445 756.859 280.495C758.284 279.204 756.441 267.447 756.441 267.447C756.802 266.424 756.863 265.319 756.617 264.263C756.372 263.207 755.83 262.242 755.055 261.483C753.156 259.337 749.832 259.109 744.248 258.216C741.323 257.761 736.898 256.944 733.973 256.317C730.478 255.671 727.591 254.988 725.122 257.134C724.159 257.973 723.477 259.089 723.171 260.33C722.866 261.57 722.95 262.875 723.413 264.066C723.662 264.609 723.995 265.109 724.4 265.548C725.064 266.341 725.93 266.938 726.907 267.276C726.907 267.276 728.446 268.625 733.726 269.27C738.617 269.645 743.534 269.55 748.407 268.985C749.946 268.776 750.307 270.277 751.085 274.341C751.826 277.988 752.415 284.028 753.82 284.047Z" fill="#263238"/>
<path d="M756.422 268.359L761.437 265.662C761.275 265.325 761.048 265.024 760.767 264.777C760.487 264.53 760.159 264.343 759.804 264.226C759.45 264.109 759.075 264.064 758.702 264.096C758.33 264.127 757.968 264.233 757.638 264.408C756.971 264.789 756.474 265.409 756.248 266.143C756.023 266.877 756.085 267.669 756.422 268.359V268.359Z" fill="#263238"/>
<path d="M738.531 300.02C741.955 299.367 745.312 298.401 748.559 297.133C750.08 296.345 751.325 295.113 752.13 293.6C751.742 295.116 751.05 296.537 750.098 297.779C748.198 300.21 738.531 301.995 738.531 301.995V300.02Z" fill="#F28F8F"/>
<path d="M740.316 280.818C740.293 281.028 740.313 281.24 740.378 281.442C740.442 281.643 740.548 281.829 740.688 281.986C740.829 282.144 741.001 282.27 741.194 282.356C741.387 282.442 741.596 282.487 741.807 282.487C742.019 282.487 742.227 282.442 742.42 282.356C742.613 282.27 742.786 282.144 742.926 281.986C743.067 281.829 743.173 281.643 743.237 281.442C743.301 281.24 743.322 281.028 743.298 280.818C743.303 280.619 743.269 280.422 743.197 280.236C743.125 280.051 743.017 279.882 742.879 279.739C742.741 279.596 742.576 279.482 742.394 279.403C742.212 279.324 742.015 279.282 741.817 279.28C741.617 279.282 741.42 279.324 741.237 279.402C741.053 279.481 740.887 279.595 740.748 279.738C740.609 279.881 740.499 280.05 740.425 280.235C740.351 280.42 740.314 280.618 740.316 280.818V280.818Z" fill="#263238"/>
<path d="M741.893 275.196L745.084 276.944C745.31 276.508 745.36 276.002 745.222 275.531C745.084 275.06 744.769 274.661 744.343 274.417C744.132 274.303 743.9 274.233 743.661 274.21C743.422 274.188 743.181 274.213 742.952 274.286C742.724 274.359 742.512 274.477 742.33 274.633C742.148 274.79 741.999 274.981 741.893 275.196V275.196Z" fill="#263238"/>
<path d="M739.215 291.074L735.815 292.347C735.888 292.575 736.006 292.786 736.162 292.967C736.317 293.149 736.508 293.297 736.723 293.403C736.937 293.51 737.171 293.572 737.41 293.586C737.648 293.6 737.888 293.566 738.113 293.486C738.575 293.307 738.949 292.955 739.155 292.504C739.36 292.054 739.382 291.541 739.215 291.074Z" fill="#F28F8F"/>
<path d="M727.059 276.431L729.965 274.189C729.675 273.838 729.262 273.611 728.81 273.555C728.358 273.498 727.902 273.617 727.534 273.886C727.148 274.171 726.884 274.592 726.796 275.065C726.708 275.537 726.802 276.025 727.059 276.431Z" fill="#263238"/>
<path d="M727.952 280.381C727.959 280.677 728.054 280.964 728.224 281.206C728.395 281.448 728.633 281.635 728.909 281.742C729.184 281.849 729.486 281.872 729.775 281.808C730.064 281.745 730.327 281.597 730.533 281.384C730.738 281.171 730.876 280.902 730.928 280.61C730.981 280.319 730.946 280.019 730.829 279.747C730.711 279.476 730.516 279.245 730.268 279.084C730.02 278.923 729.729 278.839 729.433 278.843C729.235 278.845 729.038 278.887 728.856 278.966C728.674 279.045 728.509 279.159 728.371 279.302C728.233 279.445 728.125 279.615 728.053 279.8C727.981 279.985 727.947 280.183 727.952 280.381V280.381Z" fill="#263238"/>
<path d="M735.53 278.976L735.036 287.921L730.364 286.326L735.53 278.976Z" fill="#F28F8F"/>
<path d="M758.664 512.95V511.583C757.752 511.982 755.644 520.073 751.864 523.51C748.863 526.245 744.761 529.417 743.716 532.475C742.671 535.533 749.414 537.413 752.225 536.9C755.492 536.331 761.152 534.032 762.557 531.905C763.963 529.778 764.646 526.644 765.805 525.068C766.964 523.491 769.604 521.782 770.23 519.978C770.424 518.286 770.235 516.573 769.68 514.963C769.243 513.292 768.768 511.431 768.198 511.583V512.627C766.839 513.692 765.157 514.261 763.431 514.242C762.044 514.299 758.664 514.014 758.664 512.95Z" fill="#263238"/>
<path d="M725.635 497.87C725.141 497.87 724.723 498.591 723.735 499.769C722.077 501.424 720.151 502.785 718.038 503.796C714.467 505.581 707.534 508.335 704.401 509.74C702.501 510.633 702.501 512.988 704.553 514.337C706.604 515.685 711.485 516.654 717.354 515.343C720.545 514.622 724.723 511.678 727.363 511.83C730.003 511.982 734.96 511.963 736.86 510.614C738.759 509.266 738.018 506.417 737.467 503.948C736.917 501.478 736.005 497.148 735.112 497.338V498.174C733.973 499.902 728.142 500.624 725.616 499.332L725.635 497.87Z" fill="#263238"/>
<path d="M743.868 396.447C738.932 394.923 734.393 392.329 730.573 388.85C733.118 392.747 736.616 395.931 740.734 398.1L737.885 422.449L743.868 396.447Z" fill="#263238"/>
<path d="M690.555 360.911C692.915 361.23 695.256 361.687 697.563 362.279C699.487 363.117 701.586 363.476 703.679 363.324C706.395 363.153 713.498 359.791 719.785 355.973C726.673 351.476 732.743 345.837 737.733 339.297C743.431 331.225 749.737 318.5 752.757 313.638C755.777 308.776 758.626 308.263 761.968 308.415C765.919 308.567 768.426 312.213 764.969 319.678C760.014 329.889 753.943 339.52 746.869 348.395C741.43 354.828 734.968 360.321 727.743 364.653C721.478 368.301 714.794 371.177 707.838 373.219C705.825 373.884 704.496 374.89 700.811 376.619C699.328 377.428 697.735 378.017 696.082 378.366C694.01 378.67 691.905 378.67 689.833 378.366C687.206 378.008 684.725 376.945 682.654 375.289C681.509 374.392 680.597 373.232 679.995 371.908C679.397 370.57 679.283 369.067 679.672 367.654C679.751 367.372 679.894 367.112 680.09 366.894C680.532 366.587 681.077 366.464 681.609 366.552C684.572 366.552 687.744 367.198 690.688 366.989C693.176 366.818 694.923 366.343 694.486 365.983C694.049 365.622 692.587 365.85 690.688 364.995C688.788 364.14 687.402 362.222 687.934 361.196C688.465 360.171 688.465 360.38 690.555 360.911Z" fill="#FFA8A7"/>
<path d="M760.696 307.009C761.628 306.992 762.553 307.168 763.414 307.525C764.275 307.883 765.053 308.414 765.699 309.087C766.344 309.759 766.844 310.558 767.166 311.432C767.489 312.307 767.626 313.239 767.571 314.17C767.571 319.355 759.556 334.378 753.421 342.944C753.421 342.944 743.925 342.336 738.854 335.138C738.854 335.138 747.781 320.931 750.25 316.411C752.377 312.346 756.27 306.8 760.696 307.009Z" fill="#F44174"/>
<path d="M681.191 328.68C684.07 327.429 687.248 327.033 690.346 327.541C692.853 327.94 692.853 336.278 684.819 338.937C679.596 340.646 676.462 339.886 674.772 344.179C674.772 344.179 671.391 343.742 672.17 338.937C673.012 333.999 675.215 329.395 678.532 325.641C680.83 322.925 680.982 320.646 682.122 321.406C683.261 322.166 682.806 324.825 682.806 324.825L681.191 328.68Z" fill="#FFA8A7"/>
</g>
</g>
<defs>
<filter id="filter0_d_48_10" x="4" y="0" width="975" height="839.173" filterUnits="userSpaceOnUse" color-interpolation-filters="sRGB">
<feFlood flood-opacity="0" result="BackgroundImageFix"/>
<feColorMatrix in="SourceAlpha" type="matrix" values="0 0 0 0 0 0 0 0 0 0 0 0 0 0 0 0 0 0 127 0" result="hardAlpha"/>
<feOffset dx="7" dy="23"/>
<feGaussianBlur stdDeviation="31.5"/>
<feComposite in2="hardAlpha" operator="out"/>
<feColorMatrix type="matrix" values="0 0 0 0 0 0 0 0 0 0 0 0 0 0 0 0 0 0 0.5 0"/>
<feBlend mode="normal" in2="BackgroundImageFix" result="effect1_dropShadow_48_10"/>
<feBlend mode="normal" in="SourceGraphic" in2="effect1_dropShadow_48_10" result="shape"/>
</filter>
<clipPath id="clip0_48_10">
<rect width="970" height="840" fill="white"/>
</clipPath>
</defs>
</svg>
