<svg width="970" height="840" viewBox="0 0 970 840" fill="none" xmlns="http://www.w3.org/2000/svg">
<g clip-path="url(#clip0_33_21)">
<g filter="url(#filter0_d_33_21)">
<path d="M199.744 662.986C364.061 748.821 630.452 748.821 794.769 662.986C959.087 577.15 959.067 437.973 794.769 352.138C630.472 266.302 364.061 266.302 199.744 352.138C35.4267 437.973 35.4463 577.209 199.744 662.986Z" fill="#F3EFE0"/>
<path d="M833.618 514.043C808.928 525.809 768.903 525.809 744.174 514.043C719.445 502.277 719.465 483.176 744.174 471.409C768.883 459.643 808.889 459.643 833.618 471.409C858.347 483.176 858.327 502.257 833.618 514.043Z" fill="#AED9E0"/>
<path d="M307.681 295.561C276.402 313.622 251.065 357.531 251.065 393.614C251.065 429.698 276.402 444.347 307.681 426.305C338.96 408.263 364.297 364.335 364.297 328.252C364.297 292.168 338.94 277.5 307.681 295.561ZM302.896 398.262C299.038 400.695 294.624 402.105 290.07 402.36C279.089 402.36 277.892 389.398 277.892 383.828C277.892 362.061 293.816 334.508 312.662 323.624C316.51 321.186 320.919 319.775 325.468 319.525C336.469 319.525 337.646 332.488 337.646 338.057C337.548 359.805 321.644 387.378 302.896 398.262Z" fill="#455A64"/>
<path d="M326.938 319.643C326.418 319.572 325.894 319.533 325.37 319.525C322.615 319.619 319.902 320.224 317.369 321.31C317.619 323.07 317.743 324.846 317.741 326.624C317.741 348.372 301.817 375.945 282.971 386.809C281.432 387.703 279.826 388.477 278.167 389.123C278.527 392.399 279.685 395.537 281.54 398.262C282.504 399.582 283.776 400.646 285.246 401.361C286.716 402.075 288.339 402.418 289.972 402.36C294.528 402.115 298.944 400.703 302.798 398.262C321.644 387.378 337.548 359.805 337.548 338.057C337.548 332.762 336.469 320.82 326.938 319.643Z" fill="#263238"/>
<path d="M347.628 291.56L319.545 275.343C309.25 269.322 295.052 270.146 279.363 279.127C247.986 297.189 222.747 341.097 222.747 377.18C222.747 395.026 228.944 407.597 238.985 413.597L239.259 413.793H239.416L267.107 429.776H267.244C262.425 426.774 258.562 422.461 256.105 417.343C253.952 412.938 252.515 408.218 251.849 403.361C251.338 400.064 251.076 396.734 251.065 393.398C251.065 357.295 276.402 313.387 307.681 295.345C310.574 293.687 313.59 292.251 316.702 291.051C321.243 289.201 326.048 288.082 330.939 287.736C336.742 287.28 342.55 288.534 347.647 291.345L347.628 291.56Z" fill="#37474F"/>
<path d="M302.111 154.973L275.696 139.716L235.906 162.68L143.56 490.628L169.995 505.885L209.236 483.215L302.111 154.973Z" fill="#37474F"/>
<path d="M209.235 483.215L169.995 505.885L262.478 177.858L302.111 154.973L209.235 483.215Z" fill="#455A64"/>
<path d="M169.995 505.885L262.478 177.858L235.906 162.68L143.56 490.628L169.995 505.885Z" fill="#263238"/>
<path d="M153.855 242.71C122.596 260.772 97.2393 304.68 97.2393 340.764C97.2393 376.847 122.635 391.516 153.855 373.474C185.075 355.432 210.471 311.504 210.471 275.421C210.471 239.337 185.232 224.669 153.855 242.71ZM149.031 345.411C145.174 347.847 140.76 349.258 136.206 349.51C125.204 349.51 124.027 336.547 124.027 330.978C124.027 309.23 139.932 281.657 158.777 270.773C162.631 268.332 167.047 266.921 171.603 266.675C182.585 266.675 183.781 279.637 183.781 285.207C183.781 306.955 167.857 334.527 149.031 345.411Z" fill="#455A64"/>
<path d="M173.172 266.792C172.651 266.722 172.128 266.683 171.603 266.675C168.84 266.768 166.119 267.38 163.582 268.479C163.832 270.233 163.956 272.002 163.955 273.774C163.955 295.522 148.05 323.094 129.205 333.959C127.675 334.847 126.083 335.62 124.439 336.273C124.797 339.559 125.962 342.705 127.832 345.431C128.798 346.748 130.071 347.808 131.541 348.519C133.011 349.23 134.633 349.57 136.264 349.51C140.819 349.258 145.233 347.847 149.09 345.411C167.916 334.527 183.84 306.955 183.84 285.207C183.781 279.912 182.683 267.969 173.172 266.792Z" fill="#263238"/>
<path d="M193.861 238.71L165.778 222.492C155.522 216.511 141.324 217.334 125.635 226.414C94.2585 244.456 69 288.364 69 324.467C69 342.313 75.2166 354.883 85.2376 360.884L85.5121 361.08H85.669L113.32 377.18H113.477C108.653 374.187 104.783 369.881 102.318 364.767C100.168 360.354 98.7315 355.628 98.0629 350.765C97.5509 347.469 97.2886 344.138 97.2785 340.803C97.2785 304.7 122.635 260.791 153.894 242.75C156.792 241.099 159.807 239.663 162.915 238.455C167.463 236.605 172.275 235.486 177.172 235.141C182.968 234.686 188.77 235.94 193.861 238.749V238.71Z" fill="#37474F"/>
<path d="M595.977 607.88L614.509 642.885C629.261 640.547 643.483 635.614 656.515 628.314L611.704 618.254C607.135 620.862 601.722 606.88 595.977 607.88Z" fill="#F44174"/>
<path opacity="0.2" d="M595.977 607.88L614.509 642.885C629.261 640.547 643.483 635.614 656.515 628.314L611.704 618.254C607.135 620.862 601.722 606.88 595.977 607.88Z" fill="#2C4251"/>
<path d="M557.991 587.191C566.953 582.013 579.229 579.993 590.839 581.052L600.742 524.182L590.839 506.532L539.733 513.239L484.824 593.642L486.53 596.094L547.048 600.487C548.029 595.623 551.559 590.936 557.991 587.191Z" fill="#F44174"/>
<path opacity="0.7" d="M557.991 587.191C566.953 582.013 579.229 579.993 590.839 581.052L600.742 524.182L590.839 506.532L539.733 513.239L484.824 593.642L486.53 596.094L547.048 600.487C548.029 595.623 551.559 590.936 557.991 587.191Z" fill="#2C4251"/>
<path d="M600.742 485.529V475.489L590.839 511.533L590.858 521.574L600.742 485.529Z" fill="#F44174"/>
<path opacity="0.7" d="M600.742 485.529V475.489L590.839 511.533L590.858 521.574L600.742 485.529Z" fill="#2C4251"/>
<path d="M557.991 517.671C566.953 512.513 579.229 510.474 590.838 511.533L600.742 475.489C545.479 470.449 493.589 492.197 484.843 524.103C484.588 525.005 484.314 526.241 484.157 527.143L547.068 530.967C548.029 526.104 551.558 521.397 557.991 517.671Z" fill="#F44174"/>
<path opacity="0.6" d="M557.991 517.671C566.953 512.513 579.229 510.474 590.838 511.533L600.742 475.489C545.479 470.449 493.589 492.197 484.843 524.103C484.588 525.005 484.314 526.241 484.157 527.143L547.068 530.967C548.029 526.104 551.558 521.397 557.991 517.671Z" fill="#2C4251"/>
<path d="M547.068 571.973V530.967L484.157 527.143V568.149L547.068 571.973Z" fill="#F44174"/>
<path opacity="0.8" d="M547.068 571.973V530.967L484.157 527.143V568.149L547.068 571.973Z" fill="#2C4251"/>
<path d="M611.763 527.712C619.372 532.124 623.059 537.909 622.843 543.675L686.166 544.322C687.068 514.808 651.239 490.157 600.742 485.49L590.839 521.534C598.171 522.093 605.303 524.198 611.763 527.712Z" fill="#F44174"/>
<path opacity="0.8" d="M611.763 527.712C619.372 532.124 623.059 537.909 622.843 543.675L686.166 544.322C687.068 514.808 651.239 490.157 600.742 485.49L590.839 521.534C598.171 522.093 605.303 524.198 611.763 527.712Z" fill="white"/>
<path d="M622.843 543.675V587.348L686.166 587.995V544.322L622.843 543.675Z" fill="#F44174"/>
<path opacity="0.6" d="M622.843 543.675V587.348L686.166 587.995V544.322L622.843 543.675Z" fill="white"/>
<path d="M622.863 543.675V587.014C622.863 581.405 619.176 575.777 611.763 571.482C605.88 568.07 598.506 581.857 590.858 581.151V521.573C608.155 523.044 623.176 531.771 622.863 543.675Z" fill="#F44174"/>
<path opacity="0.6" d="M622.863 543.675V587.014C622.863 581.405 619.176 575.777 611.763 571.482C605.88 568.07 598.506 581.857 590.858 581.151V521.573C608.155 523.044 623.176 531.771 622.863 543.675Z" fill="white"/>
<path d="M622.882 563.129H546.872V614.234H622.882V563.129Z" fill="#AED9E0"/>
<path d="M557.991 578.915C543.146 570.345 543.146 556.441 557.991 547.871C572.836 539.302 596.918 539.302 611.763 547.871C626.608 556.441 626.589 570.345 611.763 578.915C596.938 587.485 572.836 587.485 557.991 578.915Z" fill="#FAFAFA"/>
<path d="M622.843 587.348C622.647 592.819 618.921 614.057 611.763 618.215L656.573 628.275C676.184 616.979 685.754 603.938 686.225 587.955L622.843 587.348Z" fill="#37474F"/>
<path d="M686.166 553.892V587.995L656.515 628.314V594.231L686.166 553.892Z" fill="#37474F"/>
<path d="M622.843 553.245C622.647 558.716 618.921 564.148 611.763 568.325L656.573 594.192C676.184 582.896 685.754 569.855 686.225 553.872L622.843 553.245Z" fill="#455A64"/>
<path d="M656.514 594.231V628.314L611.704 602.448L611.763 568.325L656.514 594.231Z" fill="#263238"/>
<path d="M656.515 604.997L614.509 619.568V642.885L656.515 628.314V604.997Z" fill="#F44174"/>
<path opacity="0.2" d="M656.515 604.997L614.509 619.568V642.885L656.515 628.314V604.997Z" fill="#2C4251"/>
<path d="M595.977 584.563L614.509 619.568C629.261 617.23 643.483 612.297 656.515 604.997L611.704 579.17C606.809 581.854 601.489 583.678 595.977 584.563Z" fill="#F44174"/>
<path d="M595.957 584.563V595.192L614.509 642.885V619.568L595.957 584.563Z" fill="#F44174"/>
<path opacity="0.4" d="M595.957 584.563V595.192L614.509 642.885V619.568L595.957 584.563Z" fill="#2C4251"/>
<path d="M566.953 614.469C558.56 609.606 545.95 606.88 547.068 600.545L483.588 570.09C483.588 570.09 483.588 585.19 483.588 587.289C483.725 616.705 522.358 642.061 574.307 645.199C587.748 646.124 601.253 645.373 614.509 642.963V625.882C601.507 628.079 577.229 620.352 566.953 614.469Z" fill="#F44174"/>
<path opacity="0.5" d="M566.953 614.469C558.56 609.606 545.95 606.88 547.068 600.545L483.588 570.09C483.588 570.09 483.588 585.19 483.588 587.289C483.725 616.705 522.358 642.061 574.307 645.199C587.748 646.124 601.253 645.373 614.509 642.963V625.882C601.507 628.079 577.229 620.352 566.953 614.469Z" fill="#2C4251"/>
<path d="M557.991 585.328C549.597 580.484 545.95 573.914 547.068 567.58L484.157 563.756C478.274 595.878 518.671 624.667 574.366 628.04C587.807 628.955 601.31 628.204 614.567 625.804L596.035 590.799C582.975 593.074 568.267 591.27 557.991 585.328Z" fill="#F44174"/>
<path opacity="0.3" d="M557.991 585.328C549.597 580.484 545.95 573.914 547.068 567.58L484.157 563.756C478.274 595.878 518.671 624.667 574.366 628.04C587.807 628.955 601.31 628.204 614.567 625.804L596.035 590.799C582.975 593.074 568.267 591.27 557.991 585.328Z" fill="#2C4251"/>
<path d="M328.39 496.805C330.027 484.649 329.307 472.292 326.272 460.408C323.016 447.445 316.466 438.424 308.72 433.679C300.974 428.933 286.874 433.914 298.13 449.073C309.387 464.232 320.82 483.529 322.036 498.1L328.39 496.805Z" fill="#37474F"/>
<path d="M326.213 498.217C326.084 498.215 325.957 498.187 325.839 498.135C325.721 498.084 325.614 498.009 325.525 497.916C325.436 497.823 325.366 497.714 325.319 497.594C325.272 497.474 325.249 497.346 325.252 497.217C325.801 470.409 313.231 443.445 301.719 437.248C301.488 437.126 301.314 436.916 301.237 436.666C301.16 436.416 301.185 436.146 301.307 435.914C301.43 435.683 301.639 435.509 301.889 435.432C302.139 435.355 302.409 435.38 302.641 435.503C314.741 441.974 327.86 469.762 327.291 497.256C327.292 497.393 327.264 497.528 327.209 497.653C327.153 497.778 327.072 497.89 326.97 497.981C326.868 498.072 326.747 498.14 326.617 498.181C326.486 498.222 326.349 498.234 326.213 498.217Z" fill="white"/>
<path d="M329.351 544.224C316.996 551.401 302.955 544.812 300.523 531.026C299.68 526.221 298.836 521.221 294.385 518.495C290.659 516.181 285.638 515.886 282.442 512.788C277.892 508.356 280.481 502.649 283.344 498.158C286.011 494.079 288.168 489.314 285.658 484.647C284.118 482.198 282.899 479.562 282.03 476.802C281.607 475.425 281.55 473.962 281.862 472.556C282.175 471.15 282.848 469.85 283.815 468.782C286.168 466.546 289.874 466.644 293.032 467.409C298.151 468.778 302.861 471.369 306.759 474.959C309.524 477.332 311.093 479.744 315.074 480.47C318.016 480.999 321.075 480.47 323.977 481.156C325.807 481.652 327.509 482.533 328.97 483.74C330.431 484.948 331.618 486.454 332.449 488.157C335.332 493.785 334.41 500.335 333.959 506.395C333.508 512.455 332.939 517.926 332.233 523.672C331.645 528.535 330.978 533.477 330.272 538.243C330.155 538.988 330.017 543.871 329.351 544.224Z" fill="#455A64"/>
<path d="M330.527 537.439C330.293 537.436 330.067 537.35 329.89 537.195C329.714 537.04 329.599 536.828 329.566 536.595C325.271 505.807 299.346 477.155 289.698 472.233C289.583 472.174 289.481 472.093 289.398 471.994C289.315 471.896 289.252 471.782 289.213 471.659C289.174 471.536 289.159 471.406 289.17 471.278C289.181 471.149 289.217 471.024 289.276 470.91C289.335 470.795 289.417 470.693 289.515 470.61C289.614 470.527 289.728 470.464 289.851 470.425C289.974 470.385 290.103 470.371 290.232 470.382C290.36 470.393 290.485 470.429 290.6 470.488C300.817 475.704 327.056 504.395 331.508 536.34C331.541 536.598 331.471 536.858 331.313 537.064C331.155 537.27 330.922 537.404 330.664 537.439H330.527Z" fill="white"/>
<path d="M292.208 504.1C291.948 504.152 291.678 504.099 291.457 503.952C291.237 503.805 291.083 503.576 291.031 503.316C290.979 503.056 291.033 502.786 291.18 502.565C291.327 502.345 291.556 502.191 291.816 502.139C299.593 499.125 307.967 497.97 316.27 498.766C316.398 498.776 316.523 498.811 316.638 498.87C316.752 498.929 316.853 499.011 316.935 499.109C317.018 499.208 317.079 499.322 317.117 499.445C317.154 499.568 317.166 499.697 317.153 499.825C317.14 499.954 317.103 500.08 317.042 500.194C316.981 500.308 316.898 500.409 316.797 500.492C316.697 500.574 316.582 500.635 316.457 500.672C316.333 500.709 316.203 500.721 316.074 500.708C308.075 500.018 300.025 501.172 292.541 504.081C292.431 504.101 292.32 504.107 292.208 504.1Z" fill="white"/>
<path d="M332.096 551.48C330.353 550.305 328.911 548.736 327.889 546.899C326.867 545.062 326.292 543.01 326.213 540.91V244.554C326.325 242.388 326.948 240.28 328.032 238.402C329.116 236.524 330.63 234.929 332.449 233.748L682.675 31.563C684.529 30.5815 686.587 30.0473 688.685 30.003C690.782 29.9587 692.861 30.4056 694.755 31.308C696.499 32.4676 697.943 34.0256 698.966 35.8534C699.989 37.6811 700.562 39.7261 700.638 41.8193V338.273C700.526 340.439 699.903 342.547 698.819 344.425C697.735 346.303 696.221 347.898 694.402 349.078L344.176 551.264C342.32 552.244 340.26 552.774 338.162 552.811C336.063 552.849 333.986 552.393 332.096 551.48Z" fill="#F44174"/>
<path d="M361.355 257.556L328.017 238.337C326.89 240.199 326.262 242.32 326.193 244.495V540.909C326.134 543.03 326.648 545.127 327.683 546.978C328.717 548.83 330.233 550.368 332.069 551.429C333.906 552.49 335.995 553.035 338.116 553.006C340.237 552.977 342.31 552.375 344.117 551.264L361.296 541.341L361.355 257.556Z" fill="#F44174"/>
<path opacity="0.2" d="M361.355 257.556L328.017 238.337C326.89 240.199 326.262 242.32 326.193 244.495V540.909C326.134 543.03 326.648 545.127 327.683 546.978C328.717 548.83 330.233 550.368 332.069 551.429C333.906 552.49 335.995 553.035 338.116 553.006C340.237 552.977 342.31 552.375 344.117 551.264L361.296 541.341L361.355 257.556Z" fill="#2C4251"/>
<path d="M344.176 240.514L694.363 38.2306C697.814 36.2696 700.599 37.858 700.599 41.8194V338.273C700.487 340.439 699.863 342.547 698.779 344.425C697.695 346.303 696.182 347.898 694.363 349.078L344.176 551.264C340.744 553.225 337.96 551.637 337.96 547.656V251.32C338.07 249.156 338.69 247.049 339.771 245.171C340.851 243.292 342.361 241.697 344.176 240.514Z" fill="#F44174"/>
<g opacity="0.5">
<path d="M344.176 240.514L694.363 38.2306C697.814 36.2696 700.599 37.858 700.599 41.8194V338.273C700.487 340.439 699.863 342.547 698.779 344.425C697.695 346.303 696.182 347.898 694.363 349.078L344.176 551.264C340.744 553.225 337.96 551.637 337.96 547.656V251.32C338.07 249.156 338.69 247.049 339.771 245.171C340.851 243.292 342.361 241.697 344.176 240.514Z" fill="white"/>
</g>
<path opacity="0.4" d="M373.043 480.548C373.4 459.173 374.899 437.832 377.534 416.617C380.26 393.575 385.849 354.687 408.087 341.862C430.326 329.036 438.66 352.216 441.857 363.649C446.034 378.455 467.762 369.081 470.802 344.646C473.842 320.212 475.783 242.456 501.826 227.414C527.869 212.373 536.301 248.574 539.263 258.674C545.146 278.519 562.207 273.048 567.796 259.889C573.385 246.731 588.583 243.534 594.329 262.027C600.075 280.52 603.644 301.758 622.274 290.855C638.61 281.285 631.099 263.851 647.042 255.555C651.69 253.163 660.946 254.496 663.025 268.145C664.925 282.576 665.757 297.128 665.516 311.681L373.043 480.548Z" fill="white"/>
<path d="M373.043 481.999C372.662 481.994 372.297 481.839 372.03 481.567C371.762 481.296 371.611 480.929 371.611 480.548C371.97 459.101 373.47 437.689 376.102 416.402C378.299 397.83 383.456 354.354 407.362 340.548C414.441 336.469 420.834 335.547 426.384 337.802C433.777 340.803 439.288 349.118 443.249 363.296C444.426 367.454 447.171 369.611 450.956 369.317C458.565 368.728 467.527 359.295 469.37 344.509C469.861 340.587 470.331 335.214 470.861 328.997C473.763 295.404 478.705 239.18 501.12 226.198C508.003 222.276 514.318 221.374 519.927 223.649C532.262 228.65 537.576 247.378 540.106 256.379C540.302 257.105 540.478 257.752 540.655 258.34C542.832 265.772 546.852 270.106 551.97 270.322C557.599 270.695 563.639 266.067 566.463 259.399C569.6 252.006 575.719 247.437 581.837 247.75C587.956 248.064 593.055 253.124 595.702 261.693C596.329 263.655 596.937 265.753 597.526 267.792C600.801 278.912 603.86 289.364 610.175 291.913C613.214 293.11 616.94 292.384 621.549 289.697C629.236 285.187 631.354 278.97 633.433 272.381C635.511 265.792 637.884 258.791 646.376 254.379C647.932 253.614 649.647 253.227 651.381 253.247C653.115 253.268 654.819 253.696 656.358 254.496C659.338 256.006 663.162 259.595 664.437 268.028C666.346 282.543 667.185 297.18 666.947 311.818C666.951 312.009 666.914 312.198 666.84 312.373C666.766 312.549 666.657 312.707 666.518 312.838C666.38 312.969 666.216 313.07 666.037 313.134C665.857 313.198 665.667 313.224 665.477 313.211C665.095 313.2 664.733 313.04 664.469 312.765C664.204 312.49 664.059 312.121 664.065 311.74C664.315 297.272 663.489 282.805 661.594 268.459C660.495 261.223 657.436 258.262 655.063 257.065C653.932 256.473 652.677 256.154 651.4 256.133C650.123 256.113 648.859 256.392 647.709 256.948C640.257 260.87 638.277 266.871 636.178 273.283C633.943 280.088 631.629 287.128 623 292.188C617.568 295.345 613.038 296.11 609.116 294.58C601.507 291.56 598.232 280.402 594.761 268.596C594.172 266.635 593.584 264.537 592.956 262.537C590.682 255.202 586.563 250.868 581.7 250.613C576.837 250.359 571.738 254.359 569.11 260.536C565.776 268.381 558.677 273.597 551.794 273.205C548.068 272.989 541.322 270.871 537.89 259.164C537.713 258.595 537.537 257.928 537.321 257.203C534.909 248.652 529.869 230.826 518.828 226.355C514.102 224.394 508.631 225.237 502.552 228.728C481.372 240.965 476.411 298.424 473.744 329.291C473.194 335.527 472.724 340.92 472.234 344.98C470.272 361.237 459.938 371.631 451.172 372.297C446.014 372.69 442.014 369.65 440.484 364.179C436.778 351.02 431.816 343.332 425.286 340.646C420.618 338.685 415.069 339.606 408.793 343.215C386.143 356.295 381.103 398.772 378.965 416.911C376.347 438.069 374.854 459.35 374.494 480.666C374.465 481.03 374.299 481.369 374.03 481.616C373.761 481.864 373.408 482 373.043 481.999Z" fill="#F3EFE0"/>
<path d="M414.5 341.587C414.255 341.587 414.021 341.49 413.848 341.317C413.675 341.144 413.578 340.91 413.578 340.666V338.861C413.559 338.73 413.568 338.597 413.605 338.47C413.642 338.343 413.706 338.225 413.793 338.125C413.879 338.025 413.986 337.944 414.106 337.889C414.227 337.834 414.358 337.806 414.49 337.806C414.622 337.806 414.753 337.834 414.874 337.889C414.994 337.944 415.101 338.025 415.188 338.125C415.274 338.225 415.338 338.343 415.375 338.47C415.412 338.597 415.421 338.73 415.402 338.861V340.666C415.402 340.907 415.308 341.138 415.139 341.31C414.97 341.483 414.741 341.582 414.5 341.587Z" fill="#F3EFE0"/>
<path d="M414.5 450.407C414.379 450.407 414.259 450.383 414.147 450.336C414.035 450.29 413.934 450.222 413.848 450.137C413.763 450.051 413.695 449.949 413.648 449.838C413.602 449.726 413.578 449.606 413.578 449.485V445.818C413.61 445.599 413.72 445.399 413.888 445.254C414.055 445.11 414.269 445.03 414.49 445.03C414.711 445.03 414.925 445.11 415.093 445.254C415.26 445.399 415.37 445.599 415.402 445.818V449.446C415.407 449.568 415.388 449.691 415.345 449.806C415.302 449.921 415.237 450.026 415.153 450.116C415.069 450.205 414.968 450.277 414.856 450.327C414.744 450.377 414.623 450.404 414.5 450.407ZM414.5 443.151C414.255 443.151 414.021 443.054 413.848 442.881C413.675 442.708 413.578 442.473 413.578 442.229V438.601C413.61 438.382 413.72 438.182 413.888 438.037C414.055 437.893 414.269 437.813 414.49 437.813C414.711 437.813 414.925 437.893 415.093 438.037C415.26 438.182 415.37 438.382 415.402 438.601V442.229C415.402 442.47 415.308 442.701 415.139 442.874C414.97 443.046 414.741 443.146 414.5 443.151ZM414.5 435.895C414.379 435.895 414.259 435.871 414.147 435.825C414.035 435.778 413.934 435.71 413.848 435.625C413.763 435.539 413.695 435.438 413.648 435.326C413.602 435.214 413.578 435.094 413.578 434.973V431.365C413.559 431.234 413.568 431.1 413.605 430.973C413.642 430.846 413.706 430.728 413.793 430.628C413.879 430.528 413.986 430.448 414.106 430.392C414.227 430.337 414.358 430.309 414.49 430.309C414.622 430.309 414.753 430.337 414.874 430.392C414.994 430.448 415.101 430.528 415.188 430.628C415.274 430.728 415.338 430.846 415.375 430.973C415.412 431.1 415.421 431.234 415.402 431.365V434.973C415.402 435.214 415.308 435.446 415.139 435.618C414.97 435.79 414.741 435.89 414.5 435.895ZM414.5 428.639C414.259 428.639 414.027 428.544 413.855 428.376C413.683 428.207 413.583 427.978 413.578 427.737V424.109C413.559 423.978 413.568 423.844 413.605 423.717C413.642 423.59 413.706 423.472 413.793 423.372C413.879 423.272 413.986 423.192 414.106 423.137C414.227 423.081 414.358 423.053 414.49 423.053C414.622 423.053 414.753 423.081 414.874 423.137C414.994 423.192 415.101 423.272 415.188 423.372C415.274 423.472 415.338 423.59 415.375 423.717C415.412 423.844 415.421 423.978 415.402 424.109V427.737C415.397 427.974 415.3 428.201 415.132 428.369C414.964 428.537 414.738 428.634 414.5 428.639ZM414.5 421.383C414.259 421.383 414.027 421.288 413.855 421.12C413.683 420.951 413.583 420.722 413.578 420.481V416.853C413.559 416.722 413.568 416.588 413.605 416.461C413.642 416.334 413.706 416.216 413.793 416.116C413.879 416.016 413.986 415.936 414.106 415.881C414.227 415.825 414.358 415.797 414.49 415.797C414.622 415.797 414.753 415.825 414.874 415.881C414.994 415.936 415.101 416.016 415.188 416.116C415.274 416.216 415.338 416.334 415.375 416.461C415.412 416.588 415.421 416.722 415.402 416.853V420.481C415.397 420.718 415.3 420.945 415.132 421.113C414.964 421.281 414.738 421.378 414.5 421.383ZM414.5 414.127C414.259 414.127 414.027 414.033 413.855 413.864C413.683 413.695 413.583 413.466 413.578 413.225V409.597C413.559 409.466 413.568 409.332 413.605 409.205C413.642 409.078 413.706 408.96 413.793 408.86C413.879 408.76 413.986 408.68 414.106 408.625C414.227 408.57 414.358 408.541 414.49 408.541C414.622 408.541 414.753 408.57 414.874 408.625C414.994 408.68 415.101 408.76 415.188 408.86C415.274 408.96 415.338 409.078 415.375 409.205C415.412 409.332 415.421 409.466 415.402 409.597V413.225C415.397 413.462 415.3 413.689 415.132 413.857C414.964 414.025 414.738 414.122 414.5 414.127ZM414.5 406.871C414.259 406.871 414.027 406.777 413.855 406.608C413.683 406.439 413.583 406.21 413.578 405.969V402.341C413.559 402.21 413.568 402.076 413.605 401.949C413.642 401.822 413.706 401.705 413.793 401.604C413.879 401.504 413.986 401.424 414.106 401.369C414.227 401.314 414.358 401.285 414.49 401.285C414.622 401.285 414.753 401.314 414.874 401.369C414.994 401.424 415.101 401.504 415.188 401.604C415.274 401.705 415.338 401.822 415.375 401.949C415.412 402.076 415.421 402.21 415.402 402.341V405.969C415.397 406.207 415.3 406.433 415.132 406.601C414.964 406.769 414.738 406.866 414.5 406.871ZM414.5 399.615C414.38 399.618 414.26 399.596 414.149 399.552C414.037 399.508 413.935 399.442 413.849 399.358C413.763 399.274 413.695 399.174 413.649 399.063C413.602 398.952 413.578 398.833 413.578 398.713V395.085C413.559 394.954 413.568 394.82 413.605 394.693C413.642 394.566 413.706 394.449 413.793 394.348C413.879 394.248 413.986 394.168 414.106 394.113C414.227 394.058 414.358 394.029 414.49 394.029C414.622 394.029 414.753 394.058 414.874 394.113C414.994 394.168 415.101 394.248 415.188 394.348C415.274 394.449 415.338 394.566 415.375 394.693C415.412 394.82 415.421 394.954 415.402 395.085V398.752C415.392 398.985 415.292 399.204 415.124 399.365C414.956 399.526 414.732 399.615 414.5 399.615ZM414.5 392.359C414.38 392.362 414.26 392.34 414.149 392.296C414.037 392.252 413.935 392.186 413.849 392.102C413.763 392.018 413.695 391.918 413.649 391.807C413.602 391.696 413.578 391.577 413.578 391.457V387.829C413.559 387.698 413.568 387.564 413.605 387.437C413.642 387.31 413.706 387.193 413.793 387.092C413.879 386.992 413.986 386.912 414.106 386.857C414.227 386.802 414.358 386.773 414.49 386.773C414.622 386.773 414.753 386.802 414.874 386.857C414.994 386.912 415.101 386.992 415.188 387.092C415.274 387.193 415.338 387.31 415.375 387.437C415.412 387.564 415.421 387.698 415.402 387.829V391.457C415.402 391.575 415.379 391.693 415.333 391.802C415.288 391.912 415.222 392.011 415.138 392.095C415.054 392.179 414.955 392.245 414.845 392.29C414.736 392.336 414.618 392.359 414.5 392.359ZM414.5 385.103C414.38 385.106 414.26 385.084 414.149 385.04C414.037 384.996 413.935 384.93 413.849 384.846C413.763 384.762 413.695 384.662 413.649 384.551C413.602 384.44 413.578 384.321 413.578 384.201V380.573C413.61 380.354 413.72 380.154 413.888 380.01C414.055 379.865 414.269 379.785 414.49 379.785C414.711 379.785 414.925 379.865 415.093 380.01C415.26 380.154 415.37 380.354 415.402 380.573V384.201C415.382 384.426 415.279 384.636 415.112 384.789C414.944 384.941 414.726 385.026 414.5 385.025V385.103ZM414.5 377.867C414.255 377.867 414.021 377.77 413.848 377.597C413.675 377.424 413.578 377.19 413.578 376.945V373.258C413.61 373.039 413.72 372.84 413.888 372.695C414.055 372.55 414.269 372.471 414.49 372.471C414.711 372.471 414.925 372.55 415.093 372.695C415.26 372.84 415.37 373.039 415.402 373.258V376.886C415.41 377.011 415.393 377.135 415.351 377.253C415.31 377.37 415.245 377.478 415.16 377.569C415.076 377.661 414.974 377.735 414.861 377.786C414.747 377.837 414.624 377.864 414.5 377.867ZM414.5 370.611C414.255 370.611 414.021 370.514 413.848 370.341C413.675 370.168 413.578 369.934 413.578 369.689V366.061C413.61 365.842 413.72 365.642 413.888 365.498C414.055 365.353 414.269 365.274 414.49 365.274C414.711 365.274 414.925 365.353 415.093 365.498C415.26 365.642 415.37 365.842 415.402 366.061V369.689C415.402 369.93 415.308 370.162 415.139 370.334C414.97 370.506 414.741 370.606 414.5 370.611ZM414.5 363.355C414.255 363.355 414.021 363.258 413.848 363.085C413.675 362.912 413.578 362.678 413.578 362.433V358.805C413.61 358.586 413.72 358.386 413.888 358.242C414.055 358.097 414.269 358.018 414.49 358.018C414.711 358.018 414.925 358.097 415.093 358.242C415.26 358.386 415.37 358.586 415.402 358.805V362.433C415.416 362.561 415.403 362.69 415.364 362.812C415.325 362.934 415.261 363.046 415.176 363.142C415.091 363.238 414.987 363.315 414.871 363.369C414.754 363.422 414.628 363.451 414.5 363.453V363.355ZM414.5 356.099C414.255 356.099 414.021 356.002 413.848 355.829C413.675 355.656 413.578 355.422 413.578 355.177V351.549C413.61 351.331 413.72 351.131 413.888 350.986C414.055 350.841 414.269 350.762 414.49 350.762C414.711 350.762 414.925 350.841 415.093 350.986C415.26 351.131 415.37 351.331 415.402 351.549V355.177C415.402 355.418 415.308 355.65 415.139 355.822C414.97 355.995 414.741 356.094 414.5 356.099ZM414.5 348.843C414.255 348.843 414.021 348.746 413.848 348.573C413.675 348.4 413.578 348.166 413.578 347.921V344.293C413.61 344.075 413.72 343.875 413.888 343.73C414.055 343.585 414.269 343.506 414.49 343.506C414.711 343.506 414.925 343.585 415.093 343.73C415.26 343.875 415.37 344.075 415.402 344.293V347.921C415.402 348.163 415.308 348.394 415.139 348.566C414.97 348.739 414.741 348.838 414.5 348.843Z" fill="#F3EFE0"/>
<path d="M414.5 455.858C414.379 455.858 414.259 455.834 414.147 455.788C414.035 455.742 413.934 455.674 413.848 455.588C413.763 455.503 413.695 455.401 413.648 455.289C413.602 455.178 413.578 455.058 413.578 454.937V453.113C413.61 452.894 413.72 452.694 413.888 452.549C414.055 452.405 414.269 452.325 414.49 452.325C414.711 452.325 414.925 452.405 415.092 452.549C415.26 452.694 415.37 452.894 415.402 453.113V454.937C415.402 455.178 415.308 455.409 415.139 455.582C414.97 455.754 414.741 455.853 414.5 455.858Z" fill="#F3EFE0"/>
<path d="M508.591 227.689C508.354 227.684 508.127 227.587 507.959 227.419C507.791 227.251 507.694 227.024 507.689 226.787V224.963C507.67 224.832 507.679 224.698 507.716 224.571C507.753 224.444 507.817 224.327 507.904 224.226C507.99 224.126 508.097 224.046 508.218 223.991C508.338 223.936 508.469 223.907 508.601 223.907C508.734 223.907 508.864 223.936 508.985 223.991C509.105 224.046 509.212 224.126 509.299 224.226C509.385 224.327 509.449 224.444 509.486 224.571C509.523 224.698 509.532 224.832 509.513 224.963V226.787C509.508 227.028 509.409 227.257 509.236 227.426C509.064 227.594 508.833 227.689 508.591 227.689Z" fill="#F3EFE0"/>
<path d="M508.591 397.791C508.35 397.786 508.121 397.687 507.952 397.514C507.784 397.342 507.689 397.111 507.689 396.87V393.183C507.67 393.052 507.679 392.918 507.716 392.791C507.753 392.664 507.817 392.546 507.904 392.446C507.99 392.346 508.097 392.266 508.218 392.211C508.338 392.156 508.469 392.127 508.601 392.127C508.734 392.127 508.864 392.156 508.985 392.211C509.105 392.266 509.212 392.346 509.299 392.446C509.385 392.546 509.449 392.664 509.486 392.791C509.523 392.918 509.532 393.052 509.513 393.183V396.791C509.524 396.919 509.508 397.047 509.467 397.168C509.425 397.289 509.359 397.4 509.273 397.494C509.186 397.588 509.081 397.663 508.963 397.714C508.846 397.766 508.719 397.792 508.591 397.791ZM508.591 390.398C508.35 390.393 508.121 390.294 507.952 390.121C507.784 389.949 507.689 389.717 507.689 389.476V385.77C507.722 385.551 507.831 385.351 507.999 385.207C508.166 385.062 508.38 384.982 508.601 384.982C508.822 384.982 509.036 385.062 509.204 385.207C509.371 385.351 509.481 385.551 509.513 385.77V389.476C509.513 389.597 509.489 389.717 509.443 389.829C509.397 389.941 509.329 390.043 509.243 390.128C509.158 390.214 509.056 390.282 508.944 390.328C508.832 390.374 508.713 390.398 508.591 390.398ZM508.591 382.985C508.352 382.985 508.123 382.89 507.954 382.721C507.784 382.552 507.689 382.322 507.689 382.083V378.377C507.722 378.158 507.831 377.958 507.999 377.813C508.166 377.669 508.38 377.589 508.601 377.589C508.822 377.589 509.036 377.669 509.204 377.813C509.371 377.958 509.481 378.158 509.513 378.377V382.083C509.524 382.21 509.508 382.337 509.467 382.457C509.425 382.577 509.359 382.687 509.272 382.78C509.185 382.872 509.079 382.945 508.962 382.994C508.845 383.043 508.718 383.067 508.591 383.064V382.985ZM508.591 375.592C508.354 375.587 508.127 375.49 507.959 375.322C507.791 375.154 507.694 374.928 507.689 374.69V370.984C507.722 370.765 507.831 370.565 507.999 370.42C508.166 370.276 508.38 370.196 508.601 370.196C508.822 370.196 509.036 370.276 509.204 370.42C509.371 370.565 509.481 370.765 509.513 370.984V374.69C509.508 374.931 509.409 375.16 509.236 375.329C509.064 375.498 508.833 375.592 508.591 375.592ZM508.591 368.199C508.354 368.194 508.127 368.097 507.959 367.929C507.791 367.761 507.694 367.534 507.689 367.297V363.59C507.722 363.372 507.831 363.172 507.999 363.027C508.166 362.882 508.38 362.803 508.601 362.803C508.822 362.803 509.036 362.882 509.204 363.027C509.371 363.172 509.481 363.372 509.513 363.59V367.375C509.489 367.602 509.381 367.812 509.211 367.964C509.041 368.117 508.82 368.2 508.591 368.199ZM508.591 360.806C508.354 360.801 508.127 360.704 507.959 360.536C507.791 360.368 507.694 360.141 507.689 359.904V356.197C507.722 355.978 507.831 355.778 507.999 355.634C508.166 355.489 508.38 355.41 508.601 355.41C508.822 355.41 509.036 355.489 509.204 355.634C509.371 355.778 509.481 355.978 509.513 356.197V359.904C509.508 360.145 509.409 360.374 509.236 360.543C509.064 360.711 508.833 360.806 508.591 360.806ZM508.591 353.412C508.35 353.407 508.121 353.308 507.952 353.136C507.784 352.963 507.689 352.732 507.689 352.491V348.804C507.67 348.673 507.679 348.539 507.716 348.412C507.753 348.285 507.817 348.168 507.904 348.067C507.99 347.967 508.097 347.887 508.218 347.832C508.338 347.777 508.469 347.748 508.601 347.748C508.734 347.748 508.864 347.777 508.985 347.832C509.105 347.887 509.212 347.967 509.299 348.067C509.385 348.168 509.449 348.285 509.486 348.412C509.523 348.539 509.532 348.673 509.513 348.804V352.491C509.513 352.612 509.489 352.732 509.443 352.843C509.397 352.955 509.329 353.057 509.243 353.143C509.158 353.228 509.056 353.296 508.944 353.342C508.832 353.389 508.713 353.412 508.591 353.412ZM508.591 346.019C508.35 346.014 508.121 345.915 507.952 345.742C507.784 345.57 507.689 345.339 507.689 345.098V341.411C507.67 341.28 507.679 341.146 507.716 341.019C507.753 340.892 507.817 340.774 507.904 340.674C507.99 340.574 508.097 340.494 508.218 340.439C508.338 340.383 508.469 340.355 508.601 340.355C508.734 340.355 508.864 340.383 508.985 340.439C509.105 340.494 509.212 340.574 509.299 340.674C509.385 340.774 509.449 340.892 509.486 341.019C509.523 341.146 509.532 341.28 509.513 341.411V345.098C509.513 345.219 509.489 345.338 509.443 345.45C509.397 345.562 509.329 345.664 509.243 345.749C509.158 345.835 509.056 345.903 508.944 345.949C508.832 345.995 508.713 346.019 508.591 346.019ZM508.591 338.626C508.35 338.621 508.121 338.522 507.952 338.349C507.784 338.177 507.689 337.945 507.689 337.704V334.037C507.67 333.906 507.679 333.773 507.716 333.646C507.753 333.518 507.817 333.401 507.904 333.301C507.99 333.2 508.097 333.12 508.218 333.065C508.338 333.01 508.469 332.981 508.601 332.981C508.734 332.981 508.864 333.01 508.985 333.065C509.105 333.12 509.212 333.2 509.299 333.301C509.385 333.401 509.449 333.518 509.486 333.646C509.523 333.773 509.532 333.906 509.513 334.037V337.724C509.508 337.965 509.409 338.194 509.236 338.363C509.064 338.532 508.833 338.626 508.591 338.626ZM508.591 331.233C508.35 331.228 508.121 331.128 507.952 330.956C507.784 330.784 507.689 330.552 507.689 330.311V326.624C507.67 326.493 507.679 326.36 507.716 326.233C507.753 326.106 507.817 325.988 507.904 325.888C507.99 325.788 508.097 325.707 508.218 325.652C508.338 325.597 508.469 325.569 508.601 325.569C508.734 325.569 508.864 325.597 508.985 325.652C509.105 325.707 509.212 325.788 509.299 325.888C509.385 325.988 509.449 326.106 509.486 326.233C509.523 326.36 509.532 326.493 509.513 326.624V330.311C509.513 330.432 509.489 330.552 509.443 330.664C509.397 330.776 509.329 330.877 509.243 330.963C509.158 331.049 509.056 331.116 508.944 331.163C508.832 331.209 508.713 331.233 508.591 331.233ZM508.591 323.84C508.35 323.835 508.121 323.735 507.952 323.563C507.784 323.391 507.689 323.159 507.689 322.918V319.231C507.67 319.1 507.679 318.967 507.716 318.84C507.753 318.712 507.817 318.595 507.904 318.495C507.99 318.394 508.097 318.314 508.218 318.259C508.338 318.204 508.469 318.175 508.601 318.175C508.734 318.175 508.864 318.204 508.985 318.259C509.105 318.314 509.212 318.394 509.299 318.495C509.385 318.595 509.449 318.712 509.486 318.84C509.523 318.967 509.532 319.1 509.513 319.231V322.918C509.513 323.039 509.489 323.159 509.443 323.271C509.397 323.382 509.329 323.484 509.243 323.57C509.158 323.655 509.056 323.723 508.944 323.77C508.832 323.816 508.713 323.84 508.591 323.84ZM508.591 316.427C508.352 316.427 508.123 316.332 507.954 316.163C507.784 315.993 507.689 315.764 507.689 315.525V311.818C507.722 311.599 507.831 311.399 507.999 311.255C508.166 311.11 508.38 311.031 508.601 311.031C508.822 311.031 509.036 311.11 509.204 311.255C509.371 311.399 509.481 311.599 509.513 311.818V315.525C509.503 315.761 509.401 315.983 509.228 316.144C509.056 316.306 508.827 316.393 508.591 316.388V316.427ZM508.591 309.034C508.352 309.034 508.123 308.939 507.954 308.769C507.784 308.6 507.689 308.371 507.689 308.132V304.425C507.722 304.206 507.831 304.006 507.999 303.862C508.166 303.717 508.38 303.638 508.601 303.638C508.822 303.638 509.036 303.717 509.204 303.862C509.371 304.006 509.481 304.206 509.513 304.425V308.132C509.513 308.252 509.489 308.371 509.443 308.481C509.396 308.592 509.328 308.692 509.242 308.776C509.156 308.86 509.054 308.927 508.943 308.971C508.831 309.015 508.712 309.036 508.591 309.034ZM508.591 301.64C508.354 301.635 508.127 301.539 507.959 301.371C507.791 301.203 507.694 300.976 507.689 300.738V297.032C507.722 296.813 507.831 296.613 507.999 296.469C508.166 296.324 508.38 296.244 508.601 296.244C508.822 296.244 509.036 296.324 509.204 296.469C509.371 296.613 509.481 296.813 509.513 297.032V300.699C509.516 300.822 509.494 300.944 509.449 301.058C509.404 301.172 509.336 301.276 509.25 301.364C509.164 301.451 509.062 301.521 508.949 301.568C508.836 301.616 508.714 301.64 508.591 301.64ZM508.591 294.247C508.354 294.242 508.127 294.146 507.959 293.978C507.791 293.809 507.694 293.583 507.689 293.345V289.639C507.722 289.42 507.831 289.22 507.999 289.075C508.166 288.931 508.38 288.851 508.601 288.851C508.822 288.851 509.036 288.931 509.204 289.075C509.371 289.22 509.481 289.42 509.513 289.639V293.345C509.508 293.586 509.409 293.816 509.236 293.984C509.064 294.153 508.833 294.247 508.591 294.247ZM508.591 286.854C508.354 286.849 508.127 286.752 507.959 286.584C507.791 286.416 507.694 286.19 507.689 285.952V282.246C507.722 282.027 507.831 281.827 507.999 281.682C508.166 281.537 508.38 281.458 508.601 281.458C508.822 281.458 509.036 281.537 509.204 281.682C509.371 281.827 509.481 282.027 509.513 282.246V285.952C509.508 286.193 509.409 286.422 509.236 286.591C509.064 286.76 508.833 286.854 508.591 286.854ZM508.591 279.461C508.35 279.456 508.121 279.356 507.952 279.184C507.784 279.012 507.689 278.78 507.689 278.539V274.852C507.67 274.721 507.679 274.588 507.716 274.461C507.753 274.334 507.817 274.216 507.904 274.116C507.99 274.016 508.097 273.935 508.218 273.88C508.338 273.825 508.469 273.797 508.601 273.797C508.734 273.797 508.864 273.825 508.985 273.88C509.105 273.935 509.212 274.016 509.299 274.116C509.385 274.216 509.449 274.334 509.486 274.461C509.523 274.588 509.532 274.721 509.513 274.852V278.539C509.513 278.66 509.489 278.78 509.443 278.892C509.397 279.004 509.329 279.105 509.243 279.191C509.158 279.276 509.056 279.344 508.944 279.391C508.832 279.437 508.713 279.461 508.591 279.461ZM508.591 272.068C508.35 272.062 508.121 271.963 507.952 271.791C507.784 271.619 507.689 271.387 507.689 271.146V267.459C507.67 267.328 507.679 267.195 507.716 267.068C507.753 266.94 507.817 266.823 507.904 266.723C507.99 266.622 508.097 266.542 508.218 266.487C508.338 266.432 508.469 266.403 508.601 266.403C508.734 266.403 508.864 266.432 508.985 266.487C509.105 266.542 509.212 266.622 509.299 266.723C509.385 266.823 509.449 266.94 509.486 267.068C509.523 267.195 509.532 267.328 509.513 267.459V271.146C509.513 271.267 509.489 271.387 509.443 271.499C509.397 271.61 509.329 271.712 509.243 271.798C509.158 271.883 509.056 271.951 508.944 271.997C508.832 272.044 508.713 272.068 508.591 272.068ZM508.591 264.674C508.35 264.669 508.121 264.57 507.952 264.398C507.784 264.225 507.689 263.994 507.689 263.753V260.066C507.67 259.935 507.679 259.801 507.716 259.674C507.753 259.547 507.817 259.43 507.904 259.329C507.99 259.229 508.097 259.149 508.218 259.094C508.338 259.039 508.469 259.01 508.601 259.01C508.734 259.01 508.864 259.039 508.985 259.094C509.105 259.149 509.212 259.229 509.299 259.329C509.385 259.43 509.449 259.547 509.486 259.674C509.523 259.801 509.532 259.935 509.513 260.066V263.753C509.513 263.874 509.489 263.994 509.443 264.105C509.397 264.217 509.329 264.319 509.243 264.404C509.158 264.49 509.056 264.558 508.944 264.604C508.832 264.651 508.713 264.674 508.591 264.674ZM508.591 257.281C508.35 257.276 508.121 257.177 507.952 257.004C507.784 256.832 507.689 256.601 507.689 256.36V252.673C507.67 252.542 507.679 252.408 507.716 252.281C507.753 252.154 507.817 252.036 507.904 251.936C507.99 251.836 508.097 251.756 508.218 251.701C508.338 251.645 508.469 251.617 508.601 251.617C508.734 251.617 508.864 251.645 508.985 251.701C509.105 251.756 509.212 251.836 509.299 251.936C509.385 252.036 509.449 252.154 509.486 252.281C509.523 252.408 509.532 252.542 509.513 252.673V256.36C509.513 256.481 509.489 256.6 509.443 256.712C509.397 256.824 509.329 256.926 509.243 257.011C509.158 257.097 509.056 257.165 508.944 257.211C508.832 257.257 508.713 257.281 508.591 257.281ZM508.591 249.888C508.35 249.883 508.121 249.784 507.952 249.611C507.784 249.439 507.689 249.207 507.689 248.966V245.26C507.722 245.041 507.831 244.841 507.999 244.696C508.166 244.552 508.38 244.472 508.601 244.472C508.822 244.472 509.036 244.552 509.204 244.696C509.371 244.841 509.481 245.041 509.513 245.26V248.966C509.513 249.087 509.489 249.207 509.443 249.319C509.397 249.431 509.329 249.532 509.243 249.618C509.158 249.704 509.056 249.772 508.944 249.818C508.832 249.864 508.713 249.888 508.591 249.888ZM508.591 242.475C508.352 242.475 508.123 242.38 507.954 242.211C507.784 242.042 507.689 241.812 507.689 241.573V237.945C507.722 237.726 507.831 237.526 507.999 237.382C508.166 237.237 508.38 237.158 508.601 237.158C508.822 237.158 509.036 237.237 509.204 237.382C509.371 237.526 509.481 237.726 509.513 237.945V241.652C509.493 241.88 509.387 242.093 509.216 242.246C509.044 242.399 508.821 242.481 508.591 242.475ZM508.591 235.082C508.352 235.082 508.123 234.987 507.954 234.818C507.784 234.649 507.689 234.419 507.689 234.18V230.474C507.722 230.255 507.831 230.055 507.999 229.91C508.166 229.765 508.38 229.686 508.601 229.686C508.822 229.686 509.036 229.765 509.204 229.91C509.371 230.055 509.481 230.255 509.513 230.474V234.18C509.513 234.3 509.489 234.419 509.443 234.53C509.396 234.64 509.328 234.741 509.242 234.825C509.156 234.909 509.054 234.975 508.943 235.019C508.831 235.063 508.712 235.085 508.591 235.082Z" fill="#F3EFE0"/>
<path d="M508.591 403.302C508.354 403.297 508.127 403.2 507.959 403.032C507.791 402.864 507.694 402.637 507.689 402.4V400.576C507.67 400.445 507.679 400.311 507.716 400.184C507.753 400.057 507.817 399.94 507.904 399.839C507.99 399.739 508.097 399.659 508.218 399.604C508.338 399.549 508.469 399.52 508.601 399.52C508.734 399.52 508.864 399.549 508.985 399.604C509.105 399.659 509.212 399.739 509.299 399.839C509.385 399.94 509.449 400.057 509.486 400.184C509.523 400.311 509.532 400.445 509.513 400.576V402.4C509.508 402.641 509.409 402.87 509.236 403.039C509.064 403.207 508.833 403.302 508.591 403.302Z" fill="#F3EFE0"/>
<path d="M580.504 252.496C580.263 252.491 580.033 252.392 579.865 252.219C579.696 252.047 579.602 251.816 579.602 251.574V249.711C579.634 249.493 579.744 249.293 579.911 249.148C580.078 249.003 580.292 248.924 580.513 248.924C580.735 248.924 580.949 249.003 581.116 249.148C581.283 249.293 581.393 249.493 581.425 249.711V251.673C581.401 251.9 581.293 252.11 581.123 252.262C580.953 252.414 580.732 252.497 580.504 252.496Z" fill="#F3EFE0"/>
<path d="M580.504 356.55C580.266 356.545 580.039 356.448 579.871 356.28C579.703 356.112 579.607 355.886 579.602 355.648V351.922C579.634 351.703 579.744 351.503 579.911 351.359C580.078 351.214 580.292 351.134 580.513 351.134C580.735 351.134 580.949 351.214 581.116 351.359C581.283 351.503 581.393 351.703 581.425 351.922V355.609C581.428 355.731 581.406 355.853 581.361 355.968C581.316 356.082 581.248 356.186 581.162 356.273C581.077 356.361 580.974 356.431 580.861 356.478C580.748 356.526 580.626 356.55 580.504 356.55ZM580.504 349.118C580.266 349.113 580.039 349.016 579.871 348.848C579.703 348.68 579.607 348.453 579.602 348.216V344.49C579.634 344.271 579.744 344.071 579.911 343.926C580.078 343.782 580.292 343.702 580.513 343.702C580.735 343.702 580.949 343.782 581.116 343.926C581.283 344.071 581.393 344.271 581.425 344.49V348.216C581.42 348.457 581.321 348.686 581.149 348.855C580.976 349.023 580.745 349.118 580.504 349.118ZM580.504 341.685C580.266 341.68 580.039 341.584 579.871 341.416C579.703 341.247 579.607 341.021 579.602 340.783V337.057C579.634 336.838 579.744 336.638 579.911 336.494C580.078 336.349 580.292 336.27 580.513 336.27C580.735 336.27 580.949 336.349 581.116 336.494C581.283 336.638 581.393 336.838 581.425 337.057V340.783C581.42 341.024 581.321 341.254 581.149 341.422C580.976 341.591 580.745 341.685 580.504 341.685ZM580.504 334.253C580.266 334.248 580.039 334.151 579.871 333.983C579.703 333.815 579.607 333.588 579.602 333.351V329.625C579.634 329.406 579.744 329.206 579.911 329.061C580.078 328.917 580.292 328.837 580.513 328.837C580.735 328.837 580.949 328.917 581.116 329.061C581.283 329.206 581.393 329.406 581.425 329.625V333.351C581.42 333.592 581.321 333.821 581.149 333.99C580.976 334.159 580.745 334.253 580.504 334.253ZM580.504 326.82C580.266 326.815 580.039 326.719 579.871 326.551C579.703 326.383 579.607 326.156 579.602 325.918V322.271C579.634 322.052 579.744 321.852 579.911 321.707C580.078 321.563 580.292 321.483 580.513 321.483C580.735 321.483 580.949 321.563 581.116 321.707C581.283 321.852 581.393 322.052 581.425 322.271V325.997C581.401 326.224 581.293 326.434 581.123 326.586C580.953 326.738 580.732 326.822 580.504 326.82ZM580.504 319.388C580.266 319.383 580.039 319.286 579.871 319.118C579.703 318.95 579.607 318.724 579.602 318.486V314.76C579.634 314.541 579.744 314.341 579.911 314.196C580.078 314.052 580.292 313.972 580.513 313.972C580.735 313.972 580.949 314.052 581.116 314.196C581.283 314.341 581.393 314.541 581.425 314.76V318.486C581.42 318.727 581.321 318.956 581.149 319.125C580.976 319.294 580.745 319.388 580.504 319.388ZM580.504 311.956C580.266 311.951 580.039 311.854 579.871 311.686C579.703 311.518 579.607 311.291 579.602 311.054V307.327C579.634 307.109 579.744 306.909 579.911 306.764C580.078 306.619 580.292 306.54 580.513 306.54C580.735 306.54 580.949 306.619 581.116 306.764C581.283 306.909 581.393 307.109 581.425 307.327V311.054C581.42 311.295 581.321 311.524 581.149 311.693C580.976 311.861 580.745 311.956 580.504 311.956ZM580.504 304.523C580.266 304.518 580.039 304.422 579.871 304.253C579.703 304.085 579.607 303.859 579.602 303.621V299.895C579.634 299.676 579.744 299.476 579.911 299.332C580.078 299.187 580.292 299.107 580.513 299.107C580.735 299.107 580.949 299.187 581.116 299.332C581.283 299.476 581.393 299.676 581.425 299.895V303.621C581.436 303.749 581.42 303.877 581.379 303.998C581.338 304.119 581.271 304.23 581.185 304.324C581.098 304.418 580.993 304.493 580.876 304.544C580.758 304.596 580.632 304.622 580.504 304.621V304.523ZM580.504 297.091C580.266 297.086 580.039 296.989 579.871 296.821C579.703 296.653 579.607 296.426 579.602 296.189V292.463C579.634 292.244 579.744 292.044 579.911 291.899C580.078 291.755 580.292 291.675 580.513 291.675C580.735 291.675 580.949 291.755 581.116 291.899C581.283 292.044 581.393 292.244 581.425 292.463V296.189C581.42 296.43 581.321 296.659 581.149 296.828C580.976 296.996 580.745 297.091 580.504 297.091ZM580.504 289.658C580.266 289.653 580.039 289.557 579.871 289.389C579.703 289.22 579.607 288.994 579.602 288.756V285.011C579.634 284.792 579.744 284.592 579.911 284.447C580.078 284.303 580.292 284.223 580.513 284.223C580.735 284.223 580.949 284.303 581.116 284.447C581.283 284.592 581.393 284.792 581.425 285.011V288.737C581.425 288.858 581.402 288.978 581.355 289.089C581.309 289.201 581.241 289.303 581.155 289.388C581.07 289.474 580.968 289.542 580.856 289.588C580.745 289.634 580.625 289.658 580.504 289.658ZM580.504 282.226C580.266 282.221 580.039 282.124 579.871 281.956C579.703 281.788 579.607 281.561 579.602 281.324V277.598C579.634 277.379 579.744 277.179 579.911 277.034C580.078 276.89 580.292 276.81 580.513 276.81C580.735 276.81 580.949 276.89 581.116 277.034C581.283 277.179 581.393 277.379 581.425 277.598V281.324C581.42 281.565 581.321 281.794 581.149 281.963C580.976 282.132 580.745 282.226 580.504 282.226ZM580.504 274.793C580.263 274.788 580.033 274.689 579.865 274.517C579.696 274.344 579.602 274.113 579.602 273.872V270.165C579.582 270.034 579.591 269.901 579.628 269.774C579.665 269.647 579.729 269.529 579.816 269.429C579.903 269.329 580.01 269.248 580.13 269.193C580.25 269.138 580.381 269.11 580.513 269.11C580.646 269.11 580.777 269.138 580.897 269.193C581.017 269.248 581.124 269.329 581.211 269.429C581.298 269.529 581.361 269.647 581.398 269.774C581.435 269.901 581.445 270.034 581.425 270.165V273.872C581.425 274.116 581.328 274.351 581.155 274.524C580.983 274.696 580.748 274.793 580.504 274.793ZM580.504 267.361C580.263 267.356 580.033 267.257 579.865 267.084C579.696 266.912 579.602 266.68 579.602 266.439V262.733C579.582 262.602 579.591 262.468 579.628 262.341C579.665 262.214 579.729 262.097 579.816 261.996C579.903 261.896 580.01 261.816 580.13 261.761C580.25 261.706 580.381 261.677 580.513 261.677C580.646 261.677 580.777 261.706 580.897 261.761C581.017 261.816 581.124 261.896 581.211 261.996C581.298 262.097 581.361 262.214 581.398 262.341C581.435 262.468 581.445 262.602 581.425 262.733V266.439C581.425 266.684 581.328 266.918 581.155 267.091C580.983 267.264 580.748 267.361 580.504 267.361ZM580.504 259.929C580.263 259.924 580.033 259.824 579.865 259.652C579.696 259.48 579.602 259.248 579.602 259.007V255.301C579.582 255.17 579.591 255.036 579.628 254.909C579.665 254.782 579.729 254.664 579.816 254.564C579.903 254.464 580.01 254.383 580.13 254.328C580.25 254.273 580.381 254.245 580.513 254.245C580.646 254.245 580.777 254.273 580.897 254.328C581.017 254.383 581.124 254.464 581.211 254.564C581.298 254.664 581.361 254.782 581.398 254.909C581.435 255.036 581.445 255.17 581.425 255.301V259.007C581.425 259.251 581.328 259.486 581.155 259.659C580.983 259.832 580.748 259.929 580.504 259.929Z" fill="#F3EFE0"/>
<path d="M580.504 362.1C580.263 362.095 580.033 361.995 579.865 361.823C579.696 361.651 579.602 361.419 579.602 361.178V359.354C579.634 359.136 579.744 358.936 579.911 358.791C580.078 358.646 580.292 358.567 580.513 358.567C580.735 358.567 580.949 358.646 581.116 358.791C581.283 358.936 581.393 359.136 581.425 359.354V361.178C581.425 361.299 581.402 361.419 581.355 361.531C581.309 361.643 581.241 361.744 581.155 361.83C581.07 361.915 580.968 361.983 580.856 362.03C580.745 362.076 580.625 362.1 580.504 362.1Z" fill="#F3EFE0"/>
<path d="M651.357 257.36C651.112 257.36 650.878 257.263 650.705 257.09C650.532 256.917 650.435 256.682 650.435 256.438V254.614C650.467 254.395 650.577 254.195 650.744 254.051C650.912 253.906 651.126 253.827 651.347 253.827C651.568 253.827 651.782 253.906 651.949 254.051C652.117 254.195 652.227 254.395 652.259 254.614V256.438C652.259 256.679 652.164 256.911 651.996 257.083C651.827 257.255 651.598 257.354 651.357 257.36Z" fill="#F3EFE0"/>
<path d="M651.357 315.584C651.112 315.584 650.878 315.486 650.705 315.314C650.532 315.141 650.435 314.906 650.435 314.662V311.034C650.416 310.903 650.425 310.769 650.462 310.642C650.499 310.515 650.563 310.397 650.649 310.297C650.736 310.197 650.843 310.117 650.963 310.062C651.084 310.007 651.215 309.978 651.347 309.978C651.479 309.978 651.61 310.007 651.731 310.062C651.851 310.117 651.958 310.197 652.044 310.297C652.131 310.397 652.195 310.515 652.232 310.642C652.269 310.769 652.278 310.903 652.259 311.034V314.662C652.259 314.903 652.165 315.134 651.996 315.307C651.827 315.479 651.598 315.578 651.357 315.584ZM651.357 308.308C651.112 308.308 650.878 308.211 650.705 308.038C650.532 307.865 650.435 307.631 650.435 307.386V303.758C650.416 303.627 650.425 303.494 650.462 303.367C650.499 303.24 650.563 303.122 650.649 303.022C650.736 302.922 650.843 302.841 650.963 302.786C651.084 302.731 651.215 302.703 651.347 302.703C651.479 302.703 651.61 302.731 651.731 302.786C651.851 302.841 651.958 302.922 652.044 303.022C652.131 303.122 652.195 303.24 652.232 303.367C652.269 303.494 652.278 303.627 652.259 303.758V307.386C652.259 307.627 652.165 307.859 651.996 308.031C651.827 308.203 651.598 308.303 651.357 308.308ZM651.357 301.032C651.112 301.032 650.878 300.935 650.705 300.762C650.532 300.59 650.435 300.355 650.435 300.111V296.483C650.416 296.352 650.425 296.218 650.462 296.091C650.499 295.964 650.563 295.846 650.649 295.746C650.736 295.646 650.843 295.566 650.963 295.511C651.084 295.455 651.215 295.427 651.347 295.427C651.479 295.427 651.61 295.455 651.731 295.511C651.851 295.566 651.958 295.646 652.044 295.746C652.131 295.846 652.195 295.964 652.232 296.091C652.269 296.218 652.278 296.352 652.259 296.483V300.111C652.259 300.352 652.165 300.583 651.996 300.756C651.827 300.928 651.598 301.027 651.357 301.032ZM651.357 293.757C651.112 293.757 650.878 293.66 650.705 293.487C650.532 293.314 650.435 293.08 650.435 292.835V289.188C650.467 288.969 650.577 288.769 650.745 288.624C650.912 288.48 651.126 288.4 651.347 288.4C651.568 288.4 651.782 288.48 651.949 288.624C652.117 288.769 652.227 288.969 652.259 289.188V292.855C652.254 293.092 652.157 293.319 651.989 293.487C651.821 293.655 651.594 293.752 651.357 293.757ZM651.357 286.462C651.237 286.464 651.117 286.443 651.006 286.399C650.894 286.355 650.792 286.289 650.706 286.205C650.62 286.121 650.552 286.02 650.506 285.909C650.459 285.799 650.435 285.68 650.435 285.56V281.912C650.467 281.693 650.577 281.493 650.745 281.349C650.912 281.204 651.126 281.124 651.347 281.124C651.568 281.124 651.782 281.204 651.949 281.349C652.117 281.493 652.227 281.693 652.259 281.912V285.56C652.259 285.799 652.164 286.028 651.995 286.198C651.825 286.367 651.596 286.462 651.357 286.462ZM651.357 279.186C651.116 279.186 650.884 279.092 650.712 278.923C650.54 278.755 650.44 278.525 650.435 278.284V274.637C650.467 274.418 650.577 274.218 650.745 274.073C650.912 273.929 651.126 273.849 651.347 273.849C651.568 273.849 651.782 273.929 651.949 274.073C652.117 274.218 652.227 274.418 652.259 274.637V278.284C652.239 278.511 652.137 278.723 651.97 278.879C651.803 279.035 651.585 279.123 651.357 279.127V279.186ZM651.357 271.911C651.116 271.911 650.884 271.816 650.712 271.648C650.54 271.479 650.44 271.25 650.435 271.009V267.361C650.467 267.142 650.577 266.942 650.745 266.798C650.912 266.653 651.126 266.573 651.347 266.573C651.568 266.573 651.782 266.653 651.949 266.798C652.117 266.942 652.227 267.142 652.259 267.361V271.009C652.254 271.246 652.157 271.473 651.989 271.641C651.821 271.809 651.594 271.906 651.357 271.911ZM651.357 264.635C651.116 264.635 650.884 264.541 650.712 264.372C650.54 264.204 650.44 263.974 650.435 263.733V260.085C650.467 259.867 650.577 259.667 650.745 259.522C650.912 259.377 651.126 259.298 651.347 259.298C651.568 259.298 651.782 259.377 651.949 259.522C652.117 259.667 652.227 259.867 652.259 260.085V263.733C652.254 263.971 652.157 264.197 651.989 264.365C651.821 264.533 651.594 264.63 651.357 264.635Z" fill="#F3EFE0"/>
<path d="M651.357 321.035C651.237 321.038 651.117 321.016 651.006 320.972C650.894 320.928 650.792 320.862 650.706 320.778C650.62 320.694 650.552 320.594 650.506 320.483C650.459 320.372 650.435 320.253 650.435 320.133V318.349C650.416 318.218 650.425 318.084 650.462 317.957C650.499 317.83 650.563 317.712 650.649 317.612C650.736 317.512 650.843 317.432 650.963 317.376C651.084 317.321 651.215 317.293 651.347 317.293C651.479 317.293 651.61 317.321 651.731 317.376C651.851 317.432 651.958 317.512 652.044 317.612C652.131 317.712 652.195 317.83 652.232 317.957C652.269 318.084 652.278 318.218 652.259 318.349V320.172C652.249 320.405 652.149 320.624 651.981 320.785C651.813 320.946 651.589 321.035 651.357 321.035Z" fill="#F3EFE0"/>
<path d="M595.31 193.331C595.31 191.546 594.055 190.821 592.505 191.723L566.678 206.568C565.861 207.105 565.181 207.827 564.694 208.675C564.206 209.523 563.926 210.474 563.874 211.451V232.356C563.874 234.141 565.129 234.866 566.678 233.964L576.268 228.434L580.288 235.415C580.348 235.515 580.434 235.596 580.538 235.648C580.642 235.7 580.759 235.721 580.875 235.708C580.99 235.696 581.1 235.651 581.191 235.578C581.281 235.505 581.349 235.408 581.386 235.298L585.642 223.021L592.505 219.099C593.325 218.569 594.006 217.851 594.494 217.006C594.982 216.16 595.261 215.211 595.31 214.236V193.331Z" fill="#F3EFE0"/>
<path d="M572.836 215.236C572.577 215.256 572.318 215.217 572.076 215.122C571.835 215.027 571.619 214.878 571.444 214.687C571.068 214.201 570.886 213.593 570.934 212.981C570.935 212.182 571.109 211.392 571.444 210.667C571.788 209.871 572.258 209.136 572.836 208.49C573.393 207.835 574.056 207.278 574.797 206.843C575.387 206.475 576.063 206.265 576.758 206.235C577.018 206.22 577.278 206.263 577.519 206.361C577.76 206.46 577.975 206.611 578.15 206.803C578.533 207.286 578.722 207.895 578.68 208.51C578.667 209.303 578.486 210.085 578.15 210.804C577.795 211.6 577.326 212.339 576.758 213C576.196 213.639 575.534 214.182 574.797 214.608C574.211 214.989 573.534 215.205 572.836 215.236ZM572.208 225.806C572.213 225.682 572.247 225.562 572.306 225.453L583.524 202.646L583.818 202.136C583.939 202.007 584.078 201.895 584.23 201.803L586.524 200.489C586.568 200.47 586.614 200.461 586.661 200.461C586.709 200.461 586.755 200.47 586.799 200.489C586.837 200.498 586.87 200.522 586.892 200.554C586.914 200.587 586.922 200.627 586.916 200.665C586.914 200.798 586.873 200.928 586.799 201.038L575.483 223.865C575.483 224.061 575.287 224.198 575.228 224.296C575.123 224.411 574.996 224.504 574.856 224.571L572.542 225.924C572.346 226.179 572.208 226.041 572.208 225.806ZM576.131 211.333C576.482 210.825 576.679 210.226 576.699 209.608C576.733 209.385 576.696 209.158 576.594 208.958C576.492 208.757 576.33 208.594 576.131 208.49C575.892 208.419 575.639 208.405 575.394 208.449C575.149 208.493 574.917 208.595 574.719 208.745C574.143 209.081 573.659 209.552 573.307 210.118C572.952 210.639 572.755 211.252 572.738 211.883C572.707 212.099 572.745 212.32 572.847 212.514C572.95 212.708 573.11 212.864 573.307 212.961C573.544 213.032 573.795 213.048 574.04 213.007C574.285 212.966 574.517 212.87 574.719 212.726C575.323 212.393 575.835 211.914 576.209 211.333H576.131ZM582.367 220.119C582.104 220.139 581.839 220.097 581.595 219.999C581.35 219.9 581.131 219.747 580.955 219.55C580.571 219.075 580.382 218.473 580.425 217.864C580.438 217.077 580.619 216.301 580.955 215.589C581.308 214.788 581.784 214.047 582.367 213.393C582.923 212.743 583.586 212.192 584.328 211.765C584.914 211.385 585.591 211.168 586.289 211.137C586.55 211.124 586.81 211.166 587.054 211.26C587.297 211.355 587.518 211.5 587.701 211.687C588.087 212.167 588.277 212.777 588.23 213.393C588.219 214.186 588.039 214.969 587.701 215.687C587.338 216.483 586.863 217.223 586.289 217.883C585.727 218.528 585.065 219.078 584.328 219.511C583.759 219.864 583.113 220.073 582.445 220.119H582.367ZM585.72 216.197C586.081 215.685 586.279 215.077 586.289 214.452C586.289 213.883 586.112 213.53 585.72 213.373C585.481 213.3 585.229 213.285 584.983 213.33C584.738 213.374 584.506 213.476 584.308 213.628C583.728 213.958 583.242 214.43 582.896 215.001C582.548 215.511 582.35 216.109 582.327 216.726C582.327 217.315 582.524 217.687 582.896 217.825C583.136 217.887 583.386 217.897 583.63 217.853C583.874 217.809 584.105 217.712 584.308 217.57C584.903 217.249 585.414 216.792 585.799 216.236L585.72 216.197Z" fill="#F44174"/>
<path opacity="0.4" d="M572.836 215.236C572.577 215.256 572.318 215.217 572.076 215.122C571.835 215.027 571.619 214.878 571.444 214.687C571.068 214.201 570.886 213.593 570.934 212.981C570.935 212.182 571.109 211.392 571.444 210.667C571.788 209.871 572.258 209.136 572.836 208.49C573.393 207.835 574.056 207.278 574.797 206.843C575.387 206.475 576.063 206.265 576.758 206.235C577.018 206.22 577.278 206.263 577.519 206.361C577.76 206.46 577.975 206.611 578.15 206.803C578.533 207.286 578.722 207.895 578.68 208.51C578.667 209.303 578.486 210.085 578.15 210.804C577.795 211.6 577.326 212.339 576.758 213C576.196 213.639 575.534 214.182 574.797 214.608C574.211 214.989 573.534 215.205 572.836 215.236ZM572.208 225.806C572.213 225.682 572.247 225.562 572.306 225.453L583.524 202.646L583.818 202.136C583.939 202.007 584.078 201.895 584.23 201.803L586.524 200.489C586.568 200.47 586.614 200.461 586.661 200.461C586.709 200.461 586.755 200.47 586.799 200.489C586.837 200.498 586.87 200.522 586.892 200.554C586.914 200.587 586.922 200.627 586.916 200.665C586.914 200.798 586.873 200.928 586.799 201.038L575.483 223.865C575.483 224.061 575.287 224.198 575.228 224.296C575.123 224.411 574.996 224.504 574.856 224.571L572.542 225.924C572.346 226.179 572.208 226.041 572.208 225.806ZM576.131 211.333C576.482 210.825 576.679 210.226 576.699 209.608C576.733 209.385 576.696 209.158 576.594 208.958C576.492 208.757 576.33 208.594 576.131 208.49C575.892 208.419 575.639 208.405 575.394 208.449C575.149 208.493 574.917 208.595 574.719 208.745C574.143 209.081 573.659 209.552 573.307 210.118C572.952 210.639 572.755 211.252 572.738 211.883C572.707 212.099 572.745 212.32 572.847 212.514C572.95 212.708 573.11 212.864 573.307 212.961C573.544 213.032 573.795 213.048 574.04 213.007C574.285 212.966 574.517 212.87 574.719 212.726C575.323 212.393 575.835 211.914 576.209 211.333H576.131ZM582.367 220.119C582.104 220.139 581.839 220.097 581.595 219.999C581.35 219.9 581.131 219.747 580.955 219.55C580.571 219.075 580.382 218.473 580.425 217.864C580.438 217.077 580.619 216.301 580.955 215.589C581.308 214.788 581.784 214.047 582.367 213.393C582.923 212.743 583.586 212.192 584.328 211.765C584.914 211.385 585.591 211.168 586.289 211.137C586.55 211.124 586.81 211.166 587.054 211.26C587.297 211.355 587.518 211.5 587.701 211.687C588.087 212.167 588.277 212.777 588.23 213.393C588.219 214.186 588.039 214.969 587.701 215.687C587.338 216.483 586.863 217.223 586.289 217.883C585.727 218.528 585.065 219.078 584.328 219.511C583.759 219.864 583.113 220.073 582.445 220.119H582.367ZM585.72 216.197C586.081 215.685 586.279 215.077 586.289 214.452C586.289 213.883 586.112 213.53 585.72 213.373C585.481 213.3 585.229 213.285 584.983 213.33C584.738 213.374 584.506 213.476 584.308 213.628C583.728 213.958 583.242 214.43 582.896 215.001C582.548 215.511 582.35 216.109 582.327 216.726C582.327 217.315 582.524 217.687 582.896 217.825C583.136 217.887 583.386 217.897 583.63 217.853C583.874 217.809 584.105 217.712 584.308 217.57C584.903 217.249 585.414 216.792 585.799 216.236L585.72 216.197Z" fill="#2C4251"/>
<path d="M665.045 196.92C665.045 195.135 663.79 194.409 662.241 195.292L636.414 210.235C635.599 210.77 634.92 211.489 634.433 212.334C633.946 213.178 633.664 214.125 633.609 215.099V235.984C633.609 237.788 634.864 238.514 636.414 237.612L646.082 232.062L650.121 239.043C650.167 239.148 650.243 239.238 650.338 239.3C650.434 239.363 650.546 239.396 650.661 239.396C650.775 239.396 650.887 239.363 650.983 239.3C651.079 239.238 651.154 239.148 651.2 239.043L655.456 226.747L662.339 222.825C663.154 222.29 663.832 221.572 664.319 220.727C664.806 219.882 665.089 218.935 665.143 217.962L665.045 196.92Z" fill="#F3EFE0"/>
<path d="M642.571 218.825C642.308 218.841 642.045 218.799 641.801 218.7C641.557 218.602 641.337 218.45 641.159 218.256C640.788 217.776 640.606 217.175 640.65 216.57C640.661 215.772 640.834 214.984 641.159 214.255C641.51 213.453 641.987 212.711 642.571 212.059C643.133 211.414 643.795 210.865 644.532 210.431C645.121 210.058 645.797 209.848 646.493 209.823C646.757 209.804 647.021 209.845 647.266 209.944C647.51 210.042 647.729 210.196 647.905 210.392C648.294 210.872 648.483 211.483 648.435 212.098C648.422 212.886 648.241 213.661 647.905 214.373C647.552 215.174 647.076 215.916 646.493 216.57C645.937 217.22 645.274 217.77 644.532 218.197C643.946 218.577 643.269 218.794 642.571 218.825ZM641.924 229.395C641.93 229.262 641.97 229.134 642.042 229.022L653.259 206.215C653.335 206.033 653.434 205.862 653.553 205.705C653.661 205.57 653.795 205.457 653.946 205.372L656.26 204.038C656.377 204.038 656.456 203.94 656.534 204.038C656.613 204.136 656.632 204.038 656.632 204.215C656.635 204.346 656.601 204.475 656.534 204.587L645.258 227.512C645.188 227.664 645.102 227.809 645.003 227.944C644.904 228.057 644.784 228.151 644.65 228.218L642.316 229.571C642.16 229.65 641.924 229.611 641.924 229.395ZM645.846 214.922C646.195 214.412 646.392 213.814 646.415 213.196C646.449 212.974 646.412 212.747 646.31 212.546C646.208 212.346 646.046 212.182 645.846 212.079C645.607 212.007 645.355 211.993 645.11 212.038C644.865 212.082 644.633 212.183 644.434 212.334C643.865 212.67 643.387 213.142 643.042 213.706C642.679 214.224 642.481 214.839 642.473 215.471C642.439 215.688 642.476 215.911 642.579 216.105C642.681 216.299 642.844 216.455 643.042 216.55C643.278 216.621 643.527 216.635 643.769 216.591C644.011 216.546 644.239 216.445 644.434 216.295C645.043 215.976 645.557 215.502 645.925 214.922H645.846ZM652.082 223.708C651.82 223.723 651.557 223.68 651.313 223.581C651.069 223.483 650.849 223.332 650.671 223.139C650.306 222.655 650.125 222.057 650.161 221.453C650.175 220.661 650.348 219.881 650.671 219.158C651.033 218.362 651.509 217.622 652.082 216.962C652.645 216.323 653.307 215.78 654.044 215.354C654.632 214.979 655.308 214.763 656.005 214.726C656.266 214.708 656.528 214.748 656.772 214.843C657.016 214.938 657.236 215.086 657.417 215.275C657.802 215.749 657.991 216.353 657.946 216.962C657.937 217.762 657.757 218.551 657.417 219.276C657.058 220.068 656.582 220.802 656.005 221.453C655.446 222.1 654.783 222.651 654.044 223.08C653.476 223.438 652.83 223.654 652.161 223.708H652.082ZM655.456 219.786C655.81 219.264 656.008 218.651 656.024 218.021C656.052 217.804 656.013 217.584 655.911 217.391C655.809 217.198 655.65 217.041 655.456 216.942C655.211 216.879 654.956 216.871 654.709 216.919C654.461 216.966 654.227 217.068 654.024 217.217C653.454 217.544 652.975 218.009 652.632 218.57C652.268 219.081 652.064 219.688 652.043 220.315C652.043 220.903 652.239 221.256 652.632 221.413C652.868 221.476 653.116 221.485 653.356 221.441C653.597 221.397 653.825 221.3 654.024 221.158C654.625 220.839 655.142 220.382 655.534 219.825L655.456 219.786Z" fill="#F44174"/>
<path opacity="0.4" d="M642.571 218.825C642.308 218.841 642.045 218.799 641.801 218.7C641.557 218.602 641.337 218.45 641.159 218.256C640.788 217.776 640.606 217.175 640.65 216.57C640.661 215.772 640.834 214.984 641.159 214.255C641.51 213.453 641.987 212.711 642.571 212.059C643.133 211.414 643.795 210.865 644.532 210.431C645.121 210.058 645.797 209.848 646.493 209.823C646.757 209.804 647.021 209.845 647.266 209.944C647.51 210.042 647.729 210.196 647.905 210.392C648.294 210.872 648.483 211.483 648.435 212.098C648.422 212.886 648.241 213.661 647.905 214.373C647.552 215.174 647.076 215.916 646.493 216.57C645.937 217.22 645.274 217.77 644.532 218.197C643.946 218.577 643.269 218.794 642.571 218.825ZM641.924 229.395C641.93 229.262 641.97 229.134 642.042 229.022L653.259 206.215C653.335 206.033 653.434 205.862 653.553 205.705C653.661 205.57 653.795 205.457 653.946 205.372L656.26 204.038C656.377 204.038 656.456 203.94 656.534 204.038C656.613 204.136 656.632 204.038 656.632 204.215C656.635 204.346 656.601 204.475 656.534 204.587L645.258 227.512C645.188 227.664 645.102 227.809 645.003 227.944C644.904 228.057 644.784 228.151 644.65 228.218L642.316 229.571C642.16 229.65 641.924 229.611 641.924 229.395ZM645.846 214.922C646.195 214.412 646.392 213.814 646.415 213.196C646.449 212.974 646.412 212.747 646.31 212.546C646.208 212.346 646.046 212.182 645.846 212.079C645.607 212.007 645.355 211.993 645.11 212.038C644.865 212.082 644.633 212.183 644.434 212.334C643.865 212.67 643.387 213.142 643.042 213.706C642.679 214.224 642.481 214.839 642.473 215.471C642.439 215.688 642.476 215.911 642.579 216.105C642.681 216.299 642.844 216.455 643.042 216.55C643.278 216.621 643.527 216.635 643.769 216.591C644.011 216.546 644.239 216.445 644.434 216.295C645.043 215.976 645.557 215.502 645.925 214.922H645.846ZM652.082 223.708C651.82 223.723 651.557 223.68 651.313 223.581C651.069 223.483 650.849 223.332 650.671 223.139C650.306 222.655 650.125 222.057 650.161 221.453C650.175 220.661 650.348 219.881 650.671 219.158C651.033 218.362 651.509 217.622 652.082 216.962C652.645 216.323 653.307 215.78 654.044 215.354C654.632 214.979 655.308 214.763 656.005 214.726C656.266 214.708 656.528 214.748 656.772 214.843C657.016 214.938 657.236 215.086 657.417 215.275C657.802 215.749 657.991 216.353 657.946 216.962C657.937 217.762 657.757 218.551 657.417 219.276C657.058 220.068 656.582 220.802 656.005 221.453C655.446 222.1 654.783 222.651 654.044 223.08C653.476 223.438 652.83 223.654 652.161 223.708H652.082ZM655.456 219.786C655.81 219.264 656.008 218.651 656.024 218.021C656.052 217.804 656.013 217.584 655.911 217.391C655.809 217.198 655.65 217.041 655.456 216.942C655.211 216.879 654.956 216.871 654.709 216.919C654.461 216.966 654.227 217.068 654.024 217.217C653.454 217.544 652.975 218.009 652.632 218.57C652.268 219.081 652.064 219.688 652.043 220.315C652.043 220.903 652.239 221.256 652.632 221.413C652.868 221.476 653.116 221.485 653.356 221.441C653.597 221.397 653.825 221.3 654.024 221.158C654.625 220.839 655.142 220.382 655.534 219.825L655.456 219.786Z" fill="#2C4251"/>
<path d="M521.986 169.033C521.986 167.249 520.731 166.523 519.181 167.425L493.354 182.349C492.536 182.886 491.857 183.608 491.369 184.456C490.882 185.304 490.602 186.255 490.55 187.232V208.137C490.55 209.921 491.805 210.647 493.354 209.745L502.924 204.215L506.964 211.177C507.01 211.282 507.085 211.371 507.181 211.434C507.277 211.496 507.389 211.53 507.503 211.53C507.618 211.53 507.73 211.496 507.825 211.434C507.921 211.371 507.997 211.282 508.042 211.177L512.298 198.9L519.181 194.978C520.001 194.448 520.682 193.73 521.17 192.885C521.658 192.039 521.937 191.09 521.986 190.115V169.033Z" fill="#F3EFE0"/>
<path d="M499.492 190.88C499.234 190.897 498.975 190.857 498.734 190.762C498.493 190.667 498.277 190.52 498.1 190.331C497.732 189.841 497.551 189.236 497.59 188.624C497.601 187.826 497.775 187.039 498.1 186.31C498.451 185.518 498.92 184.784 499.492 184.134C500.054 183.483 500.716 182.927 501.453 182.486C502.045 182.121 502.72 181.911 503.414 181.878C503.677 181.859 503.942 181.9 504.186 181.999C504.431 182.097 504.65 182.251 504.826 182.447C505.209 182.93 505.398 183.538 505.356 184.153C505.342 184.947 505.162 185.729 504.826 186.448C504.464 187.244 503.988 187.984 503.414 188.644C502.852 189.283 502.19 189.826 501.453 190.252C500.867 190.632 500.19 190.849 499.492 190.88ZM498.865 201.45C498.867 201.323 498.908 201.2 498.982 201.097L510.2 178.27C510.28 178.091 510.379 177.92 510.494 177.76C510.602 177.625 510.735 177.512 510.886 177.427L513.2 176.113C513.243 176.093 513.29 176.083 513.337 176.083C513.385 176.083 513.431 176.093 513.475 176.113C513.475 176.113 513.573 176.113 513.573 176.289C513.577 176.42 513.543 176.55 513.475 176.662L502.198 199.587C502.128 199.739 502.043 199.883 501.943 200.018C501.85 200.137 501.729 200.232 501.59 200.293L499.257 201.646C499.002 201.783 498.865 201.744 498.865 201.509V201.45ZM502.787 186.977C503.138 186.468 503.336 185.869 503.355 185.251C503.389 185.029 503.352 184.802 503.25 184.601C503.148 184.401 502.986 184.237 502.787 184.134C502.548 184.062 502.296 184.048 502.05 184.093C501.805 184.137 501.574 184.238 501.375 184.388C500.806 184.726 500.328 185.197 499.982 185.761C499.619 186.279 499.421 186.894 499.414 187.526C499.414 188.095 499.59 188.448 499.982 188.605C500.218 188.676 500.467 188.69 500.709 188.646C500.952 188.601 501.18 188.5 501.375 188.35C502.007 188.034 502.543 187.553 502.924 186.957L502.787 186.977ZM509.023 195.763C508.76 195.782 508.496 195.741 508.251 195.642C508.006 195.544 507.787 195.39 507.611 195.194C507.243 194.712 507.062 194.113 507.101 193.507C507.118 192.723 507.291 191.949 507.611 191.233C507.964 190.431 508.441 189.69 509.023 189.036C509.579 188.386 510.243 187.836 510.984 187.409C511.57 187.028 512.247 186.812 512.945 186.781C513.206 186.767 513.467 186.809 513.71 186.904C513.953 186.998 514.174 187.144 514.357 187.33C514.737 187.814 514.919 188.423 514.867 189.036C514.863 189.829 514.689 190.611 514.357 191.331C513.994 192.127 513.519 192.867 512.945 193.527C512.382 194.171 511.72 194.72 510.984 195.155C510.421 195.529 509.774 195.758 509.101 195.821L509.023 195.763ZM512.396 191.841C512.748 191.325 512.945 190.719 512.965 190.095C512.996 189.878 512.957 189.657 512.855 189.464C512.753 189.27 512.592 189.114 512.396 189.017C512.154 188.944 511.898 188.929 511.65 188.973C511.401 189.017 511.166 189.12 510.964 189.272C510.392 189.604 509.913 190.077 509.572 190.644C509.209 191.149 509.005 191.749 508.984 192.37C508.984 192.958 509.18 193.331 509.572 193.468C509.809 193.531 510.056 193.54 510.297 193.496C510.537 193.452 510.765 193.355 510.964 193.213C511.559 192.91 512.076 192.474 512.474 191.939L512.396 191.841Z" fill="#F44174"/>
<path opacity="0.4" d="M499.492 190.88C499.234 190.897 498.975 190.857 498.734 190.762C498.493 190.667 498.277 190.52 498.1 190.331C497.732 189.841 497.551 189.236 497.59 188.624C497.601 187.826 497.775 187.039 498.1 186.31C498.451 185.518 498.92 184.784 499.492 184.134C500.054 183.483 500.716 182.927 501.453 182.486C502.045 182.121 502.72 181.911 503.414 181.878C503.677 181.859 503.942 181.9 504.186 181.999C504.431 182.097 504.65 182.251 504.826 182.447C505.209 182.93 505.398 183.538 505.356 184.153C505.342 184.947 505.162 185.729 504.826 186.448C504.464 187.244 503.988 187.984 503.414 188.644C502.852 189.283 502.19 189.826 501.453 190.252C500.867 190.632 500.19 190.849 499.492 190.88ZM498.865 201.45C498.867 201.323 498.908 201.2 498.982 201.097L510.2 178.27C510.28 178.091 510.379 177.92 510.494 177.76C510.602 177.625 510.735 177.512 510.886 177.427L513.2 176.113C513.243 176.093 513.29 176.083 513.337 176.083C513.385 176.083 513.431 176.093 513.475 176.113C513.475 176.113 513.573 176.113 513.573 176.289C513.577 176.42 513.543 176.55 513.475 176.662L502.198 199.587C502.128 199.739 502.043 199.883 501.943 200.018C501.85 200.137 501.729 200.232 501.59 200.293L499.257 201.646C499.002 201.783 498.865 201.744 498.865 201.509V201.45ZM502.787 186.977C503.138 186.468 503.336 185.869 503.355 185.251C503.389 185.029 503.352 184.802 503.25 184.601C503.148 184.401 502.986 184.237 502.787 184.134C502.548 184.062 502.296 184.048 502.05 184.093C501.805 184.137 501.574 184.238 501.375 184.388C500.806 184.726 500.328 185.197 499.982 185.761C499.619 186.279 499.421 186.894 499.414 187.526C499.414 188.095 499.59 188.448 499.982 188.605C500.218 188.676 500.467 188.69 500.709 188.646C500.952 188.601 501.18 188.5 501.375 188.35C502.007 188.034 502.543 187.553 502.924 186.957L502.787 186.977ZM509.023 195.763C508.76 195.782 508.496 195.741 508.251 195.642C508.006 195.544 507.787 195.39 507.611 195.194C507.243 194.712 507.062 194.113 507.101 193.507C507.118 192.723 507.291 191.949 507.611 191.233C507.964 190.431 508.441 189.69 509.023 189.036C509.579 188.386 510.243 187.836 510.984 187.409C511.57 187.028 512.247 186.812 512.945 186.781C513.206 186.767 513.467 186.809 513.71 186.904C513.953 186.998 514.174 187.144 514.357 187.33C514.737 187.814 514.919 188.423 514.867 189.036C514.863 189.829 514.689 190.611 514.357 191.331C513.994 192.127 513.519 192.867 512.945 193.527C512.382 194.171 511.72 194.72 510.984 195.155C510.421 195.529 509.774 195.758 509.101 195.821L509.023 195.763ZM512.396 191.841C512.748 191.325 512.945 190.719 512.965 190.095C512.996 189.878 512.957 189.657 512.855 189.464C512.753 189.27 512.592 189.114 512.396 189.017C512.154 188.944 511.898 188.929 511.65 188.973C511.401 189.017 511.166 189.12 510.964 189.272C510.392 189.604 509.913 190.077 509.572 190.644C509.209 191.149 509.005 191.749 508.984 192.37C508.984 192.958 509.18 193.331 509.572 193.468C509.809 193.531 510.056 193.54 510.297 193.496C510.537 193.452 510.765 193.355 510.964 193.213C511.559 192.91 512.076 192.474 512.474 191.939L512.396 191.841Z" fill="#2C4251"/>
<path d="M428.227 280.343C428.227 278.559 426.972 277.833 425.423 278.716L399.596 293.659C398.778 294.196 398.098 294.918 397.611 295.766C397.124 296.614 396.843 297.565 396.791 298.542V319.427C396.791 321.231 398.046 321.957 399.596 321.055L409.185 315.525L413.205 322.486C413.263 322.587 413.349 322.668 413.452 322.722C413.555 322.775 413.67 322.798 413.786 322.788C413.901 322.777 414.011 322.734 414.103 322.664C414.195 322.593 414.264 322.497 414.304 322.388L418.559 310.093L425.423 306.17C426.24 305.638 426.92 304.92 427.407 304.074C427.895 303.229 428.176 302.281 428.227 301.307V280.343Z" fill="#F3EFE0"/>
<path d="M405.753 302.248C405.493 302.269 405.231 302.229 404.99 302.13C404.748 302.031 404.532 301.877 404.361 301.68C403.981 301.204 403.798 300.6 403.851 299.993C403.853 299.194 404.027 298.405 404.361 297.679C404.709 296.88 405.179 296.139 405.753 295.483C406.312 294.835 406.975 294.285 407.715 293.855C408.303 293.482 408.98 293.272 409.676 293.247C409.939 293.228 410.203 293.269 410.448 293.367C410.692 293.466 410.911 293.619 411.088 293.816C411.474 294.297 411.663 294.907 411.617 295.522C411.604 296.309 411.423 297.085 411.088 297.797C410.73 298.602 410.254 299.348 409.676 300.013C409.113 300.652 408.451 301.195 407.715 301.621C407.126 301.995 406.45 302.211 405.753 302.248ZM405.126 312.818C405.133 312.689 405.166 312.562 405.224 312.446L416.441 289.639C416.517 289.457 416.616 289.286 416.735 289.129C416.848 288.998 416.98 288.886 417.128 288.795L419.442 287.462C419.53 287.431 419.627 287.431 419.716 287.462C419.754 287.471 419.788 287.495 419.809 287.527C419.831 287.56 419.84 287.6 419.834 287.638C419.829 287.771 419.788 287.899 419.716 288.011L408.46 310.936C408.362 311.132 408.264 311.269 408.205 311.367C408.094 311.476 407.969 311.568 407.832 311.642L405.499 312.995C405.244 313.073 405.126 313.054 405.126 312.818ZM409.048 298.346C409.392 297.835 409.582 297.236 409.597 296.62C409.597 296.032 409.421 295.659 409.048 295.502C408.809 295.431 408.557 295.417 408.312 295.461C408.066 295.506 407.835 295.607 407.636 295.757C407.056 296.087 406.57 296.56 406.224 297.13C405.869 297.652 405.672 298.264 405.655 298.895C405.624 299.112 405.663 299.333 405.765 299.526C405.867 299.72 406.028 299.877 406.224 299.973C406.463 300.045 406.715 300.059 406.961 300.015C407.206 299.97 407.437 299.869 407.636 299.719C408.24 299.393 408.752 298.921 409.126 298.346H409.048ZM415.284 307.131C415.021 307.147 414.759 307.103 414.515 307.005C414.27 306.907 414.051 306.756 413.872 306.563C413.492 306.086 413.303 305.485 413.343 304.876C413.356 304.089 413.536 303.313 413.872 302.601C414.23 301.796 414.706 301.05 415.284 300.385C415.85 299.75 416.512 299.207 417.245 298.777C417.834 298.403 418.51 298.187 419.206 298.15C419.468 298.132 419.729 298.172 419.973 298.267C420.217 298.362 420.438 298.509 420.618 298.699C421.007 299.179 421.196 299.789 421.148 300.405C421.137 301.199 420.956 301.981 420.618 302.699C420.26 303.492 419.784 304.226 419.206 304.876C418.653 305.53 417.989 306.081 417.245 306.504C416.682 306.871 416.034 307.087 415.363 307.131H415.284ZM418.638 303.209C418.992 302.687 419.19 302.075 419.206 301.444C419.234 301.228 419.195 301.008 419.093 300.815C418.991 300.622 418.832 300.465 418.638 300.366C418.394 300.303 418.139 300.295 417.891 300.342C417.644 300.39 417.41 300.492 417.206 300.64C416.642 300.975 416.165 301.439 415.814 301.993C415.459 302.508 415.261 303.114 415.245 303.739C415.245 304.327 415.421 304.68 415.814 304.837C416.05 304.899 416.298 304.909 416.538 304.865C416.779 304.821 417.007 304.724 417.206 304.582C417.807 304.262 418.324 303.805 418.716 303.248L418.638 303.209Z" fill="#F44174"/>
<path opacity="0.4" d="M405.753 302.248C405.493 302.269 405.231 302.229 404.99 302.13C404.748 302.031 404.532 301.877 404.361 301.68C403.981 301.204 403.798 300.6 403.851 299.993C403.853 299.194 404.027 298.405 404.361 297.679C404.709 296.88 405.179 296.139 405.753 295.483C406.312 294.835 406.975 294.285 407.715 293.855C408.303 293.482 408.98 293.272 409.676 293.247C409.939 293.228 410.203 293.269 410.448 293.367C410.692 293.466 410.911 293.619 411.088 293.816C411.474 294.297 411.663 294.907 411.617 295.522C411.604 296.309 411.423 297.085 411.088 297.797C410.73 298.602 410.254 299.348 409.676 300.013C409.113 300.652 408.451 301.195 407.715 301.621C407.126 301.995 406.45 302.211 405.753 302.248ZM405.126 312.818C405.133 312.689 405.166 312.562 405.224 312.446L416.441 289.639C416.517 289.457 416.616 289.286 416.735 289.129C416.848 288.998 416.98 288.886 417.128 288.795L419.442 287.462C419.53 287.431 419.627 287.431 419.716 287.462C419.754 287.471 419.788 287.495 419.809 287.527C419.831 287.56 419.84 287.6 419.834 287.638C419.829 287.771 419.788 287.899 419.716 288.011L408.46 310.936C408.362 311.132 408.264 311.269 408.205 311.367C408.094 311.476 407.969 311.568 407.832 311.642L405.499 312.995C405.244 313.073 405.126 313.054 405.126 312.818ZM409.048 298.346C409.392 297.835 409.582 297.236 409.597 296.62C409.597 296.032 409.421 295.659 409.048 295.502C408.809 295.431 408.557 295.417 408.312 295.461C408.066 295.506 407.835 295.607 407.636 295.757C407.056 296.087 406.57 296.56 406.224 297.13C405.869 297.652 405.672 298.264 405.655 298.895C405.624 299.112 405.663 299.333 405.765 299.526C405.867 299.72 406.028 299.877 406.224 299.973C406.463 300.045 406.715 300.059 406.961 300.015C407.206 299.97 407.437 299.869 407.636 299.719C408.24 299.393 408.752 298.921 409.126 298.346H409.048ZM415.284 307.131C415.021 307.147 414.759 307.103 414.515 307.005C414.27 306.907 414.051 306.756 413.872 306.563C413.492 306.086 413.303 305.485 413.343 304.876C413.356 304.089 413.536 303.313 413.872 302.601C414.23 301.796 414.706 301.05 415.284 300.385C415.85 299.75 416.512 299.207 417.245 298.777C417.834 298.403 418.51 298.187 419.206 298.15C419.468 298.132 419.729 298.172 419.973 298.267C420.217 298.362 420.438 298.509 420.618 298.699C421.007 299.179 421.196 299.789 421.148 300.405C421.137 301.199 420.956 301.981 420.618 302.699C420.26 303.492 419.784 304.226 419.206 304.876C418.653 305.53 417.989 306.081 417.245 306.504C416.682 306.871 416.034 307.087 415.363 307.131H415.284ZM418.638 303.209C418.992 302.687 419.19 302.075 419.206 301.444C419.234 301.228 419.195 301.008 419.093 300.815C418.991 300.622 418.832 300.465 418.638 300.366C418.394 300.303 418.139 300.295 417.891 300.342C417.644 300.39 417.41 300.492 417.206 300.64C416.642 300.975 416.165 301.439 415.814 301.993C415.459 302.508 415.261 303.114 415.245 303.739C415.245 304.327 415.421 304.68 415.814 304.837C416.05 304.899 416.298 304.909 416.538 304.865C416.779 304.821 417.007 304.724 417.206 304.582C417.807 304.262 418.324 303.805 418.716 303.248L418.638 303.209Z" fill="#2C4251"/>
<path d="M405.028 475.587L423.952 464.663C426.717 463.075 428.933 463.761 428.933 466.193C428.729 467.71 428.172 469.159 427.307 470.422C426.442 471.686 425.293 472.729 423.952 473.469L405.047 484.392C402.282 485.98 400.047 485.294 400.047 482.862C400.26 481.348 400.821 479.903 401.685 478.641C402.549 477.379 403.693 476.333 405.028 475.587Z" fill="#F3EFE0"/>
<path d="M499.139 421.245L518.064 410.322C520.809 408.734 523.045 409.42 523.045 411.852C522.831 413.367 522.271 414.811 521.407 416.073C520.543 417.335 519.398 418.381 518.064 419.128L499.139 430.129C496.394 431.718 494.158 431.031 494.158 428.599C494.363 427.072 494.919 425.613 495.784 424.337C496.648 423.061 497.797 422.002 499.139 421.245Z" fill="#F3EFE0"/>
<path d="M571.051 379.789L589.976 368.866C592.721 367.277 594.957 367.963 594.957 370.395C594.743 371.91 594.183 373.355 593.319 374.617C592.455 375.879 591.31 376.924 589.976 377.671L571.051 388.594C568.306 390.182 566.07 389.516 566.07 387.084C566.282 385.566 566.842 384.118 567.706 382.853C568.57 381.587 569.715 380.539 571.051 379.789Z" fill="#F3EFE0"/>
<path d="M641.885 338.842L660.809 327.919C663.574 326.33 665.81 326.997 665.79 329.429C665.589 330.949 665.033 332.402 664.168 333.669C663.303 334.936 662.152 335.982 660.809 336.724L641.904 347.647C639.139 349.235 636.904 348.549 636.904 346.117C637.117 344.603 637.678 343.158 638.542 341.896C639.406 340.634 640.55 339.588 641.885 338.842Z" fill="#F3EFE0"/>
<path d="M773.551 231.415C768.707 231.062 761.98 231.042 755.332 241.906C748.684 252.771 730.623 282.657 730.623 282.657L742.389 290.619L762.98 261.693C762.98 261.693 764.942 238.573 768.746 235.337C772.55 232.101 773.551 231.415 773.551 231.415Z" fill="#F28F8F"/>
<path d="M789.866 450.169L778.821 453.745L784.022 469.809L795.067 466.233L789.866 450.169Z" fill="#FFA8A7"/>
<path d="M781.807 462.82C781.876 464.137 781.54 465.444 780.846 466.566C779.088 469.489 777.017 472.211 774.668 474.684C771.354 478.234 766.393 482.529 762.902 485.529C760.941 487.255 760.843 489.863 763.667 490.765C768.923 492.056 774.474 491.284 779.179 488.608C782.709 486.647 787.729 477.979 790.651 476.645C794.024 475.135 795.926 474.371 797.064 472.723C797.925 471.838 798.461 470.688 798.586 469.46C798.71 468.232 798.416 466.997 797.75 465.958C796.162 462.996 793.828 458.447 792.789 458.957L793.083 459.878C792.318 462.29 785.748 465.095 782.375 464.428L781.807 462.82Z" fill="#263238"/>
<path d="M793.044 459.976C789.925 459.015 788.984 460.663 785.611 459.976L781.807 462.82C781.886 464.138 781.55 465.448 780.846 466.566C779.088 469.488 777.017 472.211 774.668 474.684C773.041 476.41 771.04 478.293 769.021 480.136C767.393 482.685 772.825 483.431 775.825 482.568C779.118 481.39 781.957 479.209 783.944 476.332C786.121 473.468 792.043 466.82 792.926 464.565C793.561 463.109 793.603 461.463 793.044 459.976Z" fill="#FFA8A7"/>
<path d="M830.147 297.561C828.539 285.795 824.93 272.067 820.185 250.947C818.478 243.318 816.262 236.435 810.811 234.317C810.811 234.317 795.848 240.475 795.848 251.535C795.848 262.596 807.948 268.263 807.948 268.263L814.85 292.07L825.793 305.347C827.376 304.851 828.709 303.768 829.519 302.32C830.329 300.872 830.553 299.169 830.147 297.561Z" fill="#FFA8A7"/>
<path d="M806.771 476.371H795.495V492.785H806.771V476.371Z" fill="#FFA8A7"/>
<path d="M815.262 309.053C819.734 328.193 815.38 354.02 813.85 370.121C812.36 385.809 810.517 404.145 810.517 404.145C810.517 404.145 815.321 420.716 815.086 433.561C814.851 447.132 806.908 479.803 806.908 479.803C805.183 480.913 803.175 481.504 801.123 481.504C799.071 481.504 797.063 480.913 795.338 479.803C795.338 479.803 793.377 452.348 791.416 436.816C789.455 420.54 788.827 408.695 787.16 399.184C785.062 387.417 781.552 337.253 781.552 337.253L775.512 386.986C779.134 392.944 781.956 399.353 783.905 406.047C786.376 415.676 791.749 453.897 791.749 453.897C788.388 456.909 784.064 458.626 779.551 458.741C779.551 458.741 755.391 401.341 752.097 395.614C748.567 389.515 748.037 322.722 753.665 305.994L815.262 309.053Z" fill="#455A64"/>
<path d="M794.612 231.67C794.612 231.67 808.889 233.454 810.811 234.317C795.848 244.848 807.948 268.263 807.948 268.263L800.711 288.207L815.243 308.994C811.066 313.818 784.493 330.566 755.979 312.21C756.556 302.526 757.675 292.882 759.333 283.324C755.215 263.713 754.783 257.458 755.979 252.849C759.333 239.886 767.001 231.611 775.806 231.12L794.612 231.67Z" fill="#F44174"/>
<path opacity="0.7" d="M794.612 231.67C794.612 231.67 808.889 233.454 810.811 234.317C795.848 244.848 807.948 268.263 807.948 268.263L800.711 288.207L815.243 308.994C811.066 313.818 784.493 330.566 755.979 312.21C756.556 302.526 757.675 292.882 759.333 283.324C755.215 263.713 754.783 257.458 755.979 252.849C759.333 239.886 767.001 231.611 775.806 231.12L794.612 231.67Z" fill="white"/>
<path d="M722.288 266.753L770.923 279.578L785.278 339.94L739.036 326.507L722.288 266.753Z" fill="#F44174"/>
<path d="M743.487 306.7C743.036 307.935 740.389 311.348 734.722 311.093L734.016 308.582L743.487 306.7Z" fill="#F44174"/>
<path opacity="0.2" d="M743.487 306.7C743.036 307.935 740.389 311.348 734.722 311.093L734.016 308.582L743.487 306.7Z" fill="#2C4251"/>
<path d="M754.371 308.543C754.567 310.151 757.882 313.132 763.471 314.995C769.844 317.133 779.591 315.995 779.591 315.995L778.728 312.995L754.371 308.543Z" fill="#F44174"/>
<path opacity="0.2" d="M754.371 308.543C754.567 310.151 757.882 313.132 763.471 314.995C769.844 317.133 779.591 315.995 779.591 315.995L778.728 312.995L754.371 308.543Z" fill="#2C4251"/>
<path d="M736.526 275.499L736.134 273.656C735.898 272.617 738.761 272.577 742.507 273.538L749.665 275.401C753.41 276.382 756.627 277.99 756.842 279.01L757.254 280.873L736.526 275.499Z" fill="#F44174"/>
<path opacity="0.3" d="M736.526 275.499L736.134 273.656C735.898 272.617 738.761 272.577 742.507 273.538L749.665 275.401C753.41 276.382 756.627 277.99 756.842 279.01L757.254 280.873L736.526 275.499Z" fill="#2C4251"/>
<path d="M733.153 268.498C733.015 267.871 734.172 267.694 735.741 268.126L738.585 268.91C738.585 268.91 737.722 264.988 744.037 266.302C745.714 266.537 747.302 267.202 748.646 268.233C749.989 269.264 751.043 270.626 751.704 272.185L754.724 273.048C756.411 273.519 757.921 274.421 758.117 275.009L758.47 276.166L733.427 269.577C733.427 269.577 733.29 269.145 733.153 268.498Z" fill="#455A64"/>
<path d="M736.604 270.499C738.899 271.067 739.859 271.361 740.193 272.95C740.526 274.538 740.742 276.068 740.742 276.068L751.842 279.01C751.842 279.01 751.312 276.715 751.136 275.833C750.959 274.95 751.332 274.401 753.097 274.872L753.254 274.166L735.879 269.734L736.604 270.499Z" fill="#455A64"/>
<path d="M736.29 275.676C736.29 275.676 736.114 274.852 735.879 273.715C735.643 272.577 738.506 272.656 742.252 273.715L749.43 275.578C753.175 276.558 756.372 278.166 756.607 279.186L756.999 281.049L736.29 275.676Z" fill="#455A64"/>
<path d="M825.793 305.347L814.851 292.07C814.851 292.07 790.22 302.405 786.337 302.699C782.454 302.993 779.453 299.189 777.963 295.404C776.473 291.619 773.531 292.09 773.531 292.09C773.531 292.09 774.688 296.895 775.041 298.444C775.394 299.993 766.51 301.228 761.314 299.483C756.117 297.738 748.724 300.268 753.352 307.327C757.98 314.387 766.922 315.172 773.158 315.172C775.781 315.152 778.401 314.975 781.003 314.642C782.964 314.387 784.925 314.171 787.062 314.034C799.79 313.054 819.989 307.151 825.793 305.347Z" fill="#FFA8A7"/>
<path d="M727.23 284.403L729.387 292.109C729.819 293.58 735.467 296.287 739.036 297.267C742.605 298.248 746.527 299.405 744.919 304.405C743.35 309.014 737.467 310.073 734.467 309.936C731.466 309.798 727.387 306.955 725.759 302.327C723.798 296.443 724.818 290.168 723.994 286.638C723.171 283.108 725.446 282.363 727.23 284.403Z" fill="#FFA8A7"/>
<path d="M795.495 487.235V485.608C794.101 490.943 791.32 495.814 787.435 499.727C783.866 502.983 779.022 506.728 777.786 510.337C776.551 513.945 783.513 515.592 788.121 515.141C792.581 514.579 796.689 512.427 799.691 509.081C802.613 505.728 802.555 503.434 803.927 501.59C805.3 499.747 808.438 497.668 809.183 495.531C809.403 493.546 809.182 491.537 808.536 489.647C808.006 487.686 807.438 485.47 806.771 485.725V486.961C805.167 488.239 803.174 488.931 801.123 488.922C799.476 488.824 795.475 488.49 795.495 487.235Z" fill="#263238"/>
<path d="M806.771 486.843C805.947 487.745 805.536 485.529 802.986 485.608C801.339 485.608 798.574 486.863 798.574 485.608H795.495C794.101 490.943 791.32 495.814 787.435 499.727C786.572 500.512 785.65 501.316 784.709 502.139C782.748 504.257 783.356 506.061 787.808 506.473C792.259 506.885 796.162 504.179 799.574 500.041C802.422 495.902 804.833 491.479 806.771 486.843Z" fill="#FFA8A7"/>
<path d="M784.846 222.021H782.179C775.366 222.021 768.832 219.315 764.014 214.497C759.196 209.679 756.489 203.145 756.489 196.331V193.723C756.489 187.934 758.789 182.383 762.882 178.289C766.975 174.196 772.527 171.896 778.316 171.896H788.827C794.616 171.896 800.168 174.196 804.261 178.289C808.354 182.383 810.654 187.934 810.654 193.723V196.194C810.654 203.04 807.935 209.607 803.096 214.45C798.257 219.293 791.693 222.016 784.846 222.021Z" fill="#263238"/>
<path d="M765.393 182.859C762.529 184.545 759 191.742 759.353 206.823C759.647 219.609 763.784 222.766 765.863 223.688C767.942 224.61 771.962 224.041 775.865 223.394V231.062C775.865 231.062 770.472 237.337 770.825 240.867C771.178 244.397 778.669 245.221 783.65 241.769C787.298 238.945 790.441 235.524 792.946 231.65L792.847 214C792.847 214 795.142 216.236 799.044 212.824C802.261 210.019 803.339 205.274 800.829 202.744C800.181 202.138 799.399 201.695 798.546 201.452C797.693 201.209 796.795 201.171 795.925 201.344C795.055 201.516 794.239 201.893 793.543 202.444C792.848 202.994 792.293 203.702 791.926 204.509C786.805 204.301 781.817 202.818 777.414 200.195C774.193 198.448 771.426 195.97 769.338 192.959C767.25 189.947 765.899 186.488 765.393 182.859Z" fill="#FFA8A7"/>
<path d="M773.551 203.626C773.535 203.84 773.561 204.055 773.628 204.259C773.696 204.463 773.802 204.651 773.943 204.813C774.083 204.975 774.254 205.108 774.446 205.204C774.638 205.3 774.847 205.357 775.061 205.372C775.499 205.382 775.925 205.219 776.244 204.918C776.564 204.617 776.751 204.202 776.767 203.764C776.785 203.337 776.633 202.921 776.344 202.607C776.201 202.451 776.029 202.325 775.837 202.236C775.646 202.147 775.438 202.096 775.227 202.087C774.801 202.069 774.385 202.221 774.07 202.509C773.756 202.798 773.569 203.2 773.551 203.626Z" fill="#263238"/>
<path d="M773.198 214.412L769.472 215.608C769.617 216.103 769.952 216.521 770.404 216.77C770.855 217.02 771.387 217.082 771.884 216.942C772.14 216.869 772.379 216.744 772.586 216.575C772.793 216.406 772.963 216.197 773.086 215.96C773.209 215.723 773.282 215.464 773.301 215.198C773.32 214.932 773.285 214.664 773.198 214.412Z" fill="#F28F8F"/>
<path d="M760.451 198.724L763.706 196.469C763.419 196.039 762.973 195.74 762.466 195.637C761.959 195.534 761.432 195.636 761 195.919C760.773 196.062 760.578 196.249 760.427 196.47C760.275 196.691 760.17 196.94 760.119 197.203C760.068 197.466 760.07 197.736 760.127 197.998C760.184 198.259 760.294 198.506 760.451 198.724Z" fill="#263238"/>
<path d="M761.196 202.45C761.192 202.765 761.282 203.075 761.453 203.34C761.624 203.605 761.869 203.814 762.158 203.94C762.447 204.067 762.767 204.106 763.078 204.052C763.389 203.998 763.677 203.854 763.906 203.638C764.136 203.422 764.297 203.143 764.369 202.836C764.441 202.529 764.422 202.207 764.313 201.911C764.203 201.615 764.01 201.358 763.755 201.171C763.501 200.984 763.197 200.877 762.882 200.861C762.667 200.853 762.452 200.888 762.25 200.964C762.049 201.04 761.864 201.155 761.707 201.303C761.55 201.451 761.424 201.628 761.336 201.825C761.249 202.022 761.201 202.234 761.196 202.45Z" fill="#263238"/>
<path d="M768.785 201.548L768.53 211.216L763.431 209.627L768.785 201.548Z" fill="#F28F8F"/>
<path d="M775.865 223.394C779.983 222.845 788.435 220.413 789.749 217.079C789.224 218.774 788.19 220.267 786.788 221.354C784.258 223.512 775.865 225.943 775.865 225.943V223.394Z" fill="#F28F8F"/>
<path d="M804.986 276.421L793.73 291.678L800.711 288.207L804.986 276.421Z" fill="#F44174"/>
<path opacity="0.3" d="M804.986 276.421L793.73 291.678L800.711 288.207L804.986 276.421Z" fill="white"/>
</g>
</g>
<defs>
<filter id="filter0_d_33_21" x="13" y="-10" width="975" height="823.362" filterUnits="userSpaceOnUse" color-interpolation-filters="sRGB">
<feFlood flood-opacity="0" result="BackgroundImageFix"/>
<feColorMatrix in="SourceAlpha" type="matrix" values="0 0 0 0 0 0 0 0 0 0 0 0 0 0 0 0 0 0 127 0" result="hardAlpha"/>
<feOffset dx="7" dy="23"/>
<feGaussianBlur stdDeviation="31.5"/>
<feComposite in2="hardAlpha" operator="out"/>
<feColorMatrix type="matrix" values="0 0 0 0 0 0 0 0 0 0 0 0 0 0 0 0 0 0 0.25 0"/>
<feBlend mode="normal" in2="BackgroundImageFix" result="effect1_dropShadow_33_21"/>
<feBlend mode="normal" in="SourceGraphic" in2="effect1_dropShadow_33_21" result="shape"/>
</filter>
<clipPath id="clip0_33_21">
<rect width="970" height="840" fill="white"/>
</clipPath>
</defs>
</svg>
